<svg xmlns="http://www.w3.org/2000/svg" viewBox="0 0 1200 750" width="1200" height="750"><defs>
    <linearGradient id="sky-aman-tangier" x1="0" y1="0" x2="0" y2="1"><stop offset="0" stop-color="hsla(218.03420775942504,50%,12%,1)"/><stop offset="1" stop-color="hsla(345.03420775942504,60%,45%,1)"/></linearGradient>
    <radialGradient id="glow-aman-tangier" cx="0.5" cy="0.5" r="0.5"><stop offset="0" stop-color="hsla(28.034207759425044,100%,70%,0.55)"/><stop offset="0.5" stop-color="hsla(28.034207759425044,100%,70%,0.12)"/><stop offset="1" stop-color="hsla(28.034207759425044,100%,70%,0)"/></radialGradient>
    <linearGradient id="vign-aman-tangier" x1="0" y1="0" x2="0" y2="1"><stop offset="0" stop-color="rgba(0,0,0,0.25)"/><stop offset="0.35" stop-color="rgba(0,0,0,0)"/><stop offset="1" stop-color="rgba(0,0,0,0.45)"/></linearGradient>
    <clipPath id="clip-aman-tangier"><rect width="1200" height="750"/></clipPath>
  </defs><g clip-path="url(#clip-aman-tangier)"><rect width="1200" height="750" fill="url(#sky-aman-tangier)"/><circle cx="259" cy="235" r="1.1" fill="hsla(28.034207759425044,100%,70%,0.5)" opacity="0.26"/><circle cx="291" cy="179" r="0.8" fill="hsla(28.034207759425044,100%,70%,0.5)" opacity="0.48"/><circle cx="489" cy="162" r="0.7" fill="hsla(28.034207759425044,100%,70%,0.5)" opacity="0.83"/><circle cx="1030" cy="138" r="1.5" fill="hsla(28.034207759425044,100%,70%,0.5)" opacity="0.34"/><circle cx="774" cy="55" r="1.2" fill="hsla(28.034207759425044,100%,70%,0.5)" opacity="0.40"/><circle cx="795" cy="252" r="1.4" fill="hsla(28.034207759425044,100%,70%,0.5)" opacity="0.37"/><circle cx="708" cy="131" r="1.4" fill="hsla(28.034207759425044,100%,70%,0.5)" opacity="0.73"/><circle cx="818" cy="223" r="1.6" fill="hsla(28.034207759425044,100%,70%,0.5)" opacity="0.39"/><circle cx="239" cy="249" r="2.2" fill="hsla(28.034207759425044,100%,70%,0.5)" opacity="0.69"/><circle cx="1033" cy="62" r="2.1" fill="hsla(28.034207759425044,100%,70%,0.5)" opacity="0.35"/><circle cx="348" cy="105" r="1.9" fill="hsla(28.034207759425044,100%,70%,0.5)" opacity="0.46"/><circle cx="1104" cy="151" r="1.6" fill="hsla(28.034207759425044,100%,70%,0.5)" opacity="0.70"/><circle cx="1129" cy="39" r="0.8" fill="hsla(28.034207759425044,100%,70%,0.5)" opacity="0.32"/><circle cx="1016" cy="22" r="1.4" fill="hsla(28.034207759425044,100%,70%,0.5)" opacity="0.84"/><circle cx="1091" cy="171" r="0.9" fill="hsla(28.034207759425044,100%,70%,0.5)" opacity="0.57"/><circle cx="374" cy="215" r="1.2" fill="hsla(28.034207759425044,100%,70%,0.5)" opacity="0.82"/><circle cx="94" cy="261" r="1.2" fill="hsla(28.034207759425044,100%,70%,0.5)" opacity="0.53"/><circle cx="1044" cy="161" r="0.7" fill="hsla(28.034207759425044,100%,70%,0.5)" opacity="0.51"/><circle cx="990" cy="50" r="1.1" fill="hsla(28.034207759425044,100%,70%,0.5)" opacity="0.31"/><circle cx="1149" cy="216" r="0.9" fill="hsla(28.034207759425044,100%,70%,0.5)" opacity="0.34"/><circle cx="761" cy="142" r="1.0" fill="hsla(28.034207759425044,100%,70%,0.5)" opacity="0.28"/><circle cx="447" cy="12" r="1.1" fill="hsla(28.034207759425044,100%,70%,0.5)" opacity="0.26"/><circle cx="852" cy="183" r="1.8" fill="hsla(28.034207759425044,100%,70%,0.5)" opacity="0.30"/><circle cx="1036" cy="261" r="1.5" fill="hsla(28.034207759425044,100%,70%,0.5)" opacity="0.33"/><circle cx="469" cy="231" r="2.0" fill="hsla(28.034207759425044,100%,70%,0.5)" opacity="0.61"/><circle cx="660" cy="258" r="0.8" fill="hsla(28.034207759425044,100%,70%,0.5)" opacity="0.69"/><circle cx="772.0468055922538" cy="300" r="211.20000000000002" fill="url(#glow-aman-tangier)"/><circle cx="772.0468055922538" cy="300" r="66" fill="hsla(28.034207759425044,100%,70%,1)"/><rect x="0" y="420" width="1200" height="330" fill="hsla(205.03420775942504,35%,20%,1)"/><rect x="610" y="543" width="136" height="2" rx="1" fill="hsla(28.034207759425044,100%,70%,0.15589295558631422)"/><rect x="1169" y="647" width="220" height="2" rx="1" fill="hsla(28.034207759425044,100%,70%,0.09038242392241955)"/><rect x="1060" y="486" width="121" height="2" rx="1" fill="hsla(28.034207759425044,100%,70%,0.18611197695136072)"/><rect x="1053" y="582" width="52" height="2" rx="1" fill="hsla(28.034207759425044,100%,70%,0.15391787260770798)"/><rect x="825" y="506" width="219" height="2" rx="1" fill="hsla(28.034207759425044,100%,70%,0.15494091000407934)"/><rect x="62" y="434" width="136" height="2" rx="1" fill="hsla(28.034207759425044,100%,70%,0.16157268531620503)"/><rect x="936" y="627" width="255" height="2" rx="1" fill="hsla(28.034207759425044,100%,70%,0.12828615184873343)"/><rect x="556" y="601" width="82" height="2" rx="1" fill="hsla(28.034207759425044,100%,70%,0.19788226541131737)"/><rect x="1062" y="630" width="190" height="2" rx="1" fill="hsla(28.034207759425044,100%,70%,0.1888301344588399)"/><rect x="262" y="625" width="137" height="2" rx="1" fill="hsla(28.034207759425044,100%,70%,0.05794853627681733)"/><rect x="94" y="670" width="191" height="2" rx="1" fill="hsla(28.034207759425044,100%,70%,0.12045796945691109)"/><rect x="148" y="523" width="117" height="2" rx="1" fill="hsla(28.034207759425044,100%,70%,0.09789074379950763)"/><rect x="880" y="538" width="198" height="2" rx="1" fill="hsla(28.034207759425044,100%,70%,0.06227902580052615)"/><rect x="944" y="653" width="202" height="2" rx="1" fill="hsla(28.034207759425044,100%,70%,0.14560787178575993)"/><rect x="490" y="656" width="96" height="2" rx="1" fill="hsla(28.034207759425044,100%,70%,0.12046125378459692)"/><rect x="513" y="521" width="71" height="2" rx="1" fill="hsla(28.034207759425044,100%,70%,0.09247367169708014)"/><rect x="807" y="603" width="122" height="2" rx="1" fill="hsla(28.034207759425044,100%,70%,0.13041208319365977)"/><rect x="512" y="671" width="183" height="2" rx="1" fill="hsla(28.034207759425044,100%,70%,0.20117180202156304)"/><rect x="751" y="626" width="167" height="2" rx="1" fill="hsla(28.034207759425044,100%,70%,0.19283419981598854)"/><rect x="940" y="460" width="204" height="2" rx="1" fill="hsla(28.034207759425044,100%,70%,0.1762772698327899)"/><rect x="899" y="552" width="96" height="2" rx="1" fill="hsla(28.034207759425044,100%,70%,0.16067281346768142)"/><rect x="1058" y="494" width="132" height="2" rx="1" fill="hsla(28.034207759425044,100%,70%,0.05295639500021935)"/><rect x="451" y="565" width="115" height="2" rx="1" fill="hsla(28.034207759425044,100%,70%,0.11395277678966523)"/><rect x="253" y="577" width="234" height="2" rx="1" fill="hsla(28.034207759425044,100%,70%,0.08852717027068138)"/><rect x="376" y="668" width="60" height="2" rx="1" fill="hsla(28.034207759425044,100%,70%,0.08841122660785913)"/><rect x="230" y="584" width="81" height="2" rx="1" fill="hsla(28.034207759425044,100%,70%,0.051387778110802175)"/><path d="M0 750 L0 260 L60 250 L110 300 L170 290 L230 360 L290 380 L330 430 L360 750 Z" fill="hsla(212.03420775942504,40%,12%,1)"/><path d="M1200 750 L1200 380 L1110 400 L1030 470 L970 750 Z" fill="hsla(212.03420775942504,40%,12%,1)"/><path d="M314.37647732626647 171.04286529123783 Q322.37647732626647 163.04286529123783 326.37647732626647 169.04286529123783 Q330.37647732626647 163.04286529123783 338.37647732626647 171.04286529123783" stroke="hsla(28.034207759425044,100%,70%,0.7)" stroke-width="2" fill="none"/><path d="M384.85058740433306 253.67573234252632 Q392.85058740433306 245.67573234252632 396.85058740433306 251.67573234252632 Q400.85058740433306 245.67573234252632 408.85058740433306 253.67573234252632" stroke="hsla(28.034207759425044,100%,70%,0.7)" stroke-width="2" fill="none"/><path d="M661.6605532467365 243.8248416595161 Q669.6605532467365 235.8248416595161 673.6605532467365 241.8248416595161 Q677.6605532467365 235.8248416595161 685.6605532467365 243.8248416595161" stroke="hsla(28.034207759425044,100%,70%,0.7)" stroke-width="2" fill="none"/><path d="M416.6351011367515 263.11598621308804 Q424.6351011367515 255.11598621308804 428.6351011367515 261.11598621308804 Q432.6351011367515 255.11598621308804 440.6351011367515 263.11598621308804" stroke="hsla(28.034207759425044,100%,70%,0.7)" stroke-width="2" fill="none"/><rect x="0" y="0" width="1200" height="750" fill="url(#vign-aman-tangier)"/><rect x="18" y="18" width="1164" height="714" fill="none" stroke="rgba(255,255,255,0.10)" stroke-width="1.2"/></g></svg>