<svg xmlns="http://www.w3.org/2000/svg" viewBox="0 0 1200 750" width="1200" height="750"><defs>
    <linearGradient id="sky-fasano-punta-del-este" x1="0" y1="0" x2="0" y2="1"><stop offset="0" stop-color="hsla(223.53560096211731,50%,12%,1)"/><stop offset="1" stop-color="hsla(350.5356009621173,60%,45%,1)"/></linearGradient>
    <radialGradient id="glow-fasano-punta-del-este" cx="0.5" cy="0.5" r="0.5"><stop offset="0" stop-color="hsla(33.535600962117314,100%,70%,0.55)"/><stop offset="0.5" stop-color="hsla(33.535600962117314,100%,70%,0.12)"/><stop offset="1" stop-color="hsla(33.535600962117314,100%,70%,0)"/></radialGradient>
    <linearGradient id="vign-fasano-punta-del-este" x1="0" y1="0" x2="0" y2="1"><stop offset="0" stop-color="rgba(0,0,0,0.25)"/><stop offset="0.35" stop-color="rgba(0,0,0,0)"/><stop offset="1" stop-color="rgba(0,0,0,0.45)"/></linearGradient>
    <clipPath id="clip-fasano-punta-del-este"><rect width="1200" height="750"/></clipPath>
  </defs><g clip-path="url(#clip-fasano-punta-del-este)"><rect width="1200" height="750" fill="url(#sky-fasano-punta-del-este)"/><circle cx="197" cy="248" r="0.9" fill="hsla(33.535600962117314,100%,70%,0.5)" opacity="0.51"/><circle cx="294" cy="252" r="1.3" fill="hsla(33.535600962117314,100%,70%,0.5)" opacity="0.49"/><circle cx="224" cy="261" r="1.4" fill="hsla(33.535600962117314,100%,70%,0.5)" opacity="0.75"/><circle cx="2" cy="153" r="1.0" fill="hsla(33.535600962117314,100%,70%,0.5)" opacity="0.66"/><circle cx="637" cy="217" r="1.8" fill="hsla(33.535600962117314,100%,70%,0.5)" opacity="0.25"/><circle cx="433" cy="21" r="1.9" fill="hsla(33.535600962117314,100%,70%,0.5)" opacity="0.62"/><circle cx="891" cy="35" r="1.1" fill="hsla(33.535600962117314,100%,70%,0.5)" opacity="0.32"/><circle cx="13" cy="218" r="2.0" fill="hsla(33.535600962117314,100%,70%,0.5)" opacity="0.35"/><circle cx="1187" cy="162" r="1.4" fill="hsla(33.535600962117314,100%,70%,0.5)" opacity="0.67"/><circle cx="1081" cy="154" r="1.2" fill="hsla(33.535600962117314,100%,70%,0.5)" opacity="0.78"/><circle cx="100" cy="211" r="1.6" fill="hsla(33.535600962117314,100%,70%,0.5)" opacity="0.69"/><circle cx="1195" cy="104" r="1.1" fill="hsla(33.535600962117314,100%,70%,0.5)" opacity="0.26"/><circle cx="69" cy="159" r="1.4" fill="hsla(33.535600962117314,100%,70%,0.5)" opacity="0.60"/><circle cx="961" cy="107" r="2.2" fill="hsla(33.535600962117314,100%,70%,0.5)" opacity="0.32"/><circle cx="560" cy="212" r="0.8" fill="hsla(33.535600962117314,100%,70%,0.5)" opacity="0.73"/><circle cx="898" cy="122" r="0.6" fill="hsla(33.535600962117314,100%,70%,0.5)" opacity="0.27"/><circle cx="549" cy="139" r="1.0" fill="hsla(33.535600962117314,100%,70%,0.5)" opacity="0.49"/><circle cx="1114" cy="195" r="1.8" fill="hsla(33.535600962117314,100%,70%,0.5)" opacity="0.68"/><circle cx="41" cy="58" r="2.2" fill="hsla(33.535600962117314,100%,70%,0.5)" opacity="0.62"/><circle cx="580" cy="154" r="0.6" fill="hsla(33.535600962117314,100%,70%,0.5)" opacity="0.80"/><circle cx="313" cy="145" r="0.8" fill="hsla(33.535600962117314,100%,70%,0.5)" opacity="0.61"/><circle cx="690" cy="124" r="1.9" fill="hsla(33.535600962117314,100%,70%,0.5)" opacity="0.83"/><circle cx="624" cy="26" r="1.0" fill="hsla(33.535600962117314,100%,70%,0.5)" opacity="0.78"/><circle cx="648" cy="59" r="1.4" fill="hsla(33.535600962117314,100%,70%,0.5)" opacity="0.69"/><circle cx="1192" cy="164" r="1.3" fill="hsla(33.535600962117314,100%,70%,0.5)" opacity="0.83"/><circle cx="644" cy="188" r="1.7" fill="hsla(33.535600962117314,100%,70%,0.5)" opacity="0.76"/><circle cx="659.8806978436187" cy="300" r="211.20000000000002" fill="url(#glow-fasano-punta-del-este)"/><circle cx="659.8806978436187" cy="300" r="66" fill="hsla(33.535600962117314,100%,70%,1)"/><rect x="0" y="420" width="1200" height="330" fill="hsla(210.53560096211731,35%,20%,1)"/><rect x="775" y="714" width="144" height="2" rx="1" fill="hsla(33.535600962117314,100%,70%,0.14964801203459502)"/><rect x="208" y="645" width="146" height="2" rx="1" fill="hsla(33.535600962117314,100%,70%,0.13613723933696747)"/><rect x="657" y="447" width="91" height="2" rx="1" fill="hsla(33.535600962117314,100%,70%,0.13861403718590737)"/><rect x="387" y="512" width="146" height="2" rx="1" fill="hsla(33.535600962117314,100%,70%,0.059570810049772265)"/><rect x="1181" y="601" width="141" height="2" rx="1" fill="hsla(33.535600962117314,100%,70%,0.06740758258849383)"/><rect x="640" y="489" width="242" height="2" rx="1" fill="hsla(33.535600962117314,100%,70%,0.08361777704209089)"/><rect x="682" y="711" width="126" height="2" rx="1" fill="hsla(33.535600962117314,100%,70%,0.2027640875428915)"/><rect x="1098" y="653" width="190" height="2" rx="1" fill="hsla(33.535600962117314,100%,70%,0.06438042834401131)"/><rect x="166" y="569" width="194" height="2" rx="1" fill="hsla(33.535600962117314,100%,70%,0.09298340924084186)"/><rect x="490" y="456" width="143" height="2" rx="1" fill="hsla(33.535600962117314,100%,70%,0.20952568359673024)"/><rect x="41" y="460" width="210" height="2" rx="1" fill="hsla(33.535600962117314,100%,70%,0.0642501286417246)"/><rect x="910" y="533" width="50" height="2" rx="1" fill="hsla(33.535600962117314,100%,70%,0.1881009989231825)"/><rect x="149" y="723" width="144" height="2" rx="1" fill="hsla(33.535600962117314,100%,70%,0.08894728399813176)"/><rect x="830" y="475" width="225" height="2" rx="1" fill="hsla(33.535600962117314,100%,70%,0.09515625718981027)"/><rect x="82" y="537" width="248" height="2" rx="1" fill="hsla(33.535600962117314,100%,70%,0.2063856367021799)"/><rect x="965" y="638" width="260" height="2" rx="1" fill="hsla(33.535600962117314,100%,70%,0.18139378014951946)"/><rect x="328" y="595" width="133" height="2" rx="1" fill="hsla(33.535600962117314,100%,70%,0.08709751710295677)"/><rect x="112" y="676" width="64" height="2" rx="1" fill="hsla(33.535600962117314,100%,70%,0.1844393813982606)"/><rect x="114" y="601" width="231" height="2" rx="1" fill="hsla(33.535600962117314,100%,70%,0.08481987409293651)"/><rect x="484" y="627" width="136" height="2" rx="1" fill="hsla(33.535600962117314,100%,70%,0.13787133481353522)"/><rect x="297" y="533" width="214" height="2" rx="1" fill="hsla(33.535600962117314,100%,70%,0.08562165293842555)"/><rect x="823" y="669" width="105" height="2" rx="1" fill="hsla(33.535600962117314,100%,70%,0.19251184370368718)"/><rect x="555" y="448" width="237" height="2" rx="1" fill="hsla(33.535600962117314,100%,70%,0.1689166098088026)"/><rect x="1094" y="443" width="167" height="2" rx="1" fill="hsla(33.535600962117314,100%,70%,0.0704781749099493)"/><rect x="401" y="615" width="122" height="2" rx="1" fill="hsla(33.535600962117314,100%,70%,0.1430779253318906)"/><rect x="815" y="590" width="134" height="2" rx="1" fill="hsla(33.535600962117314,100%,70%,0.09628498304635286)"/><path d="M0 750 L0 260 L60 250 L110 300 L170 290 L230 360 L290 380 L330 430 L360 750 Z" fill="hsla(217.53560096211731,40%,12%,1)"/><path d="M1200 750 L1200 380 L1110 400 L1030 470 L970 750 Z" fill="hsla(217.53560096211731,40%,12%,1)"/><path d="M434.5956943575293 213.277207640931 Q442.5956943575293 205.277207640931 446.5956943575293 211.277207640931 Q450.5956943575293 205.277207640931 458.5956943575293 213.277207640931" stroke="hsla(33.535600962117314,100%,70%,0.7)" stroke-width="2" fill="none"/><path d="M661.8553748698905 206.2072999123484 Q669.8553748698905 198.2072999123484 673.8553748698905 204.2072999123484 Q677.8553748698905 198.2072999123484 685.8553748698905 206.2072999123484" stroke="hsla(33.535600962117314,100%,70%,0.7)" stroke-width="2" fill="none"/><path d="M404.9835786568001 231.44546341151 Q412.9835786568001 223.44546341151 416.9835786568001 229.44546341151 Q420.9835786568001 223.44546341151 428.9835786568001 231.44546341151" stroke="hsla(33.535600962117314,100%,70%,0.7)" stroke-width="2" fill="none"/><path d="M463.18892500083894 254.9183500185609 Q471.18892500083894 246.9183500185609 475.18892500083894 252.9183500185609 Q479.18892500083894 246.9183500185609 487.18892500083894 254.9183500185609" stroke="hsla(33.535600962117314,100%,70%,0.7)" stroke-width="2" fill="none"/><rect x="0" y="0" width="1200" height="750" fill="url(#vign-fasano-punta-del-este)"/><rect x="18" y="18" width="1164" height="714" fill="none" stroke="rgba(255,255,255,0.10)" stroke-width="1.2"/></g></svg>