<svg xmlns="http://www.w3.org/2000/svg" viewBox="0 0 1200 750" width="1200" height="750"><defs>
    <linearGradient id="sky-il-san-pietro" x1="0" y1="0" x2="0" y2="1"><stop offset="0" stop-color="hsla(228.7637917418033,50%,12%,1)"/><stop offset="1" stop-color="hsla(355.7637917418033,60%,45%,1)"/></linearGradient>
    <radialGradient id="glow-il-san-pietro" cx="0.5" cy="0.5" r="0.5"><stop offset="0" stop-color="hsla(38.76379174180329,100%,70%,0.55)"/><stop offset="0.5" stop-color="hsla(38.76379174180329,100%,70%,0.12)"/><stop offset="1" stop-color="hsla(38.76379174180329,100%,70%,0)"/></radialGradient>
    <linearGradient id="vign-il-san-pietro" x1="0" y1="0" x2="0" y2="1"><stop offset="0" stop-color="rgba(0,0,0,0.25)"/><stop offset="0.35" stop-color="rgba(0,0,0,0)"/><stop offset="1" stop-color="rgba(0,0,0,0.45)"/></linearGradient>
    <clipPath id="clip-il-san-pietro"><rect width="1200" height="750"/></clipPath>
  </defs><g clip-path="url(#clip-il-san-pietro)"><rect width="1200" height="750" fill="url(#sky-il-san-pietro)"/><circle cx="939" cy="33" r="1.2" fill="hsla(38.76379174180329,100%,70%,0.5)" opacity="0.48"/><circle cx="578" cy="231" r="0.6" fill="hsla(38.76379174180329,100%,70%,0.5)" opacity="0.82"/><circle cx="480" cy="166" r="1.5" fill="hsla(38.76379174180329,100%,70%,0.5)" opacity="0.71"/><circle cx="741" cy="135" r="1.3" fill="hsla(38.76379174180329,100%,70%,0.5)" opacity="0.64"/><circle cx="276" cy="149" r="2.0" fill="hsla(38.76379174180329,100%,70%,0.5)" opacity="0.79"/><circle cx="196" cy="95" r="2.1" fill="hsla(38.76379174180329,100%,70%,0.5)" opacity="0.52"/><circle cx="988" cy="154" r="1.9" fill="hsla(38.76379174180329,100%,70%,0.5)" opacity="0.45"/><circle cx="334" cy="6" r="1.0" fill="hsla(38.76379174180329,100%,70%,0.5)" opacity="0.51"/><circle cx="459" cy="261" r="0.7" fill="hsla(38.76379174180329,100%,70%,0.5)" opacity="0.44"/><circle cx="716" cy="101" r="2.0" fill="hsla(38.76379174180329,100%,70%,0.5)" opacity="0.34"/><circle cx="353" cy="241" r="2.1" fill="hsla(38.76379174180329,100%,70%,0.5)" opacity="0.34"/><circle cx="304" cy="33" r="1.6" fill="hsla(38.76379174180329,100%,70%,0.5)" opacity="0.48"/><circle cx="1019" cy="60" r="0.6" fill="hsla(38.76379174180329,100%,70%,0.5)" opacity="0.51"/><circle cx="930" cy="174" r="1.2" fill="hsla(38.76379174180329,100%,70%,0.5)" opacity="0.38"/><circle cx="1100" cy="174" r="1.6" fill="hsla(38.76379174180329,100%,70%,0.5)" opacity="0.61"/><circle cx="544" cy="165" r="1.7" fill="hsla(38.76379174180329,100%,70%,0.5)" opacity="0.62"/><circle cx="1111" cy="167" r="0.9" fill="hsla(38.76379174180329,100%,70%,0.5)" opacity="0.44"/><circle cx="429" cy="56" r="1.4" fill="hsla(38.76379174180329,100%,70%,0.5)" opacity="0.34"/><circle cx="352" cy="194" r="0.7" fill="hsla(38.76379174180329,100%,70%,0.5)" opacity="0.38"/><circle cx="218" cy="164" r="2.0" fill="hsla(38.76379174180329,100%,70%,0.5)" opacity="0.25"/><circle cx="638" cy="115" r="1.5" fill="hsla(38.76379174180329,100%,70%,0.5)" opacity="0.62"/><circle cx="989" cy="114" r="0.6" fill="hsla(38.76379174180329,100%,70%,0.5)" opacity="0.66"/><circle cx="794" cy="270" r="1.3" fill="hsla(38.76379174180329,100%,70%,0.5)" opacity="0.28"/><circle cx="1099" cy="60" r="1.4" fill="hsla(38.76379174180329,100%,70%,0.5)" opacity="0.54"/><circle cx="1092" cy="127" r="1.6" fill="hsla(38.76379174180329,100%,70%,0.5)" opacity="0.46"/><circle cx="120" cy="8" r="1.7" fill="hsla(38.76379174180329,100%,70%,0.5)" opacity="0.48"/><circle cx="989.3353367224336" cy="300" r="211.20000000000002" fill="url(#glow-il-san-pietro)"/><circle cx="989.3353367224336" cy="300" r="66" fill="hsla(38.76379174180329,100%,70%,1)"/><rect x="0" y="420" width="1200" height="330" fill="hsla(215.7637917418033,35%,20%,1)"/><rect x="230" y="557" width="127" height="2" rx="1" fill="hsla(38.76379174180329,100%,70%,0.1257782232016325)"/><rect x="583" y="437" width="155" height="2" rx="1" fill="hsla(38.76379174180329,100%,70%,0.14531395979225636)"/><rect x="994" y="588" width="163" height="2" rx="1" fill="hsla(38.76379174180329,100%,70%,0.059015193134546284)"/><rect x="150" y="648" width="132" height="2" rx="1" fill="hsla(38.76379174180329,100%,70%,0.2065957000106573)"/><rect x="998" y="444" width="202" height="2" rx="1" fill="hsla(38.76379174180329,100%,70%,0.20342518765479328)"/><rect x="905" y="459" width="251" height="2" rx="1" fill="hsla(38.76379174180329,100%,70%,0.07325621068477631)"/><rect x="1086" y="612" width="259" height="2" rx="1" fill="hsla(38.76379174180329,100%,70%,0.12836366534233096)"/><rect x="850" y="469" width="243" height="2" rx="1" fill="hsla(38.76379174180329,100%,70%,0.13951380357146265)"/><rect x="523" y="483" width="127" height="2" rx="1" fill="hsla(38.76379174180329,100%,70%,0.13781206037849186)"/><rect x="462" y="574" width="91" height="2" rx="1" fill="hsla(38.76379174180329,100%,70%,0.17472992483526467)"/><rect x="917" y="492" width="100" height="2" rx="1" fill="hsla(38.76379174180329,100%,70%,0.13441587738692762)"/><rect x="412" y="465" width="164" height="2" rx="1" fill="hsla(38.76379174180329,100%,70%,0.10186378713697194)"/><rect x="506" y="600" width="114" height="2" rx="1" fill="hsla(38.76379174180329,100%,70%,0.12897433970123529)"/><rect x="329" y="487" width="241" height="2" rx="1" fill="hsla(38.76379174180329,100%,70%,0.11549361158162356)"/><rect x="992" y="521" width="49" height="2" rx="1" fill="hsla(38.76379174180329,100%,70%,0.17163219559937715)"/><rect x="1127" y="617" width="88" height="2" rx="1" fill="hsla(38.76379174180329,100%,70%,0.0951975816488266)"/><rect x="676" y="633" width="220" height="2" rx="1" fill="hsla(38.76379174180329,100%,70%,0.08732039622962476)"/><rect x="296" y="690" width="257" height="2" rx="1" fill="hsla(38.76379174180329,100%,70%,0.13172483224421738)"/><rect x="176" y="436" width="147" height="2" rx="1" fill="hsla(38.76379174180329,100%,70%,0.1557282378152013)"/><rect x="1036" y="634" width="163" height="2" rx="1" fill="hsla(38.76379174180329,100%,70%,0.148511219099164)"/><rect x="132" y="462" width="68" height="2" rx="1" fill="hsla(38.76379174180329,100%,70%,0.10796630807220936)"/><rect x="418" y="596" width="177" height="2" rx="1" fill="hsla(38.76379174180329,100%,70%,0.15735946625471114)"/><rect x="854" y="722" width="113" height="2" rx="1" fill="hsla(38.76379174180329,100%,70%,0.11464137014001609)"/><rect x="265" y="493" width="254" height="2" rx="1" fill="hsla(38.76379174180329,100%,70%,0.07731369022279978)"/><rect x="327" y="446" width="259" height="2" rx="1" fill="hsla(38.76379174180329,100%,70%,0.1280605935305357)"/><rect x="467" y="605" width="173" height="2" rx="1" fill="hsla(38.76379174180329,100%,70%,0.11849043115973473)"/><path d="M0 750 L0 260 L60 250 L110 300 L170 290 L230 360 L290 380 L330 430 L360 750 Z" fill="hsla(222.7637917418033,40%,12%,1)"/><path d="M1200 750 L1200 380 L1110 400 L1030 470 L970 750 Z" fill="hsla(222.7637917418033,40%,12%,1)"/><path d="M736.6437591258436 194.40088135190308 Q744.6437591258436 186.40088135190308 748.6437591258436 192.40088135190308 Q752.6437591258436 186.40088135190308 760.6437591258436 194.40088135190308" stroke="hsla(38.76379174180329,100%,70%,0.7)" stroke-width="2" fill="none"/><path d="M779.5461828932166 200.73422598652542 Q787.5461828932166 192.73422598652542 791.5461828932166 198.73422598652542 Q795.5461828932166 192.73422598652542 803.5461828932166 200.73422598652542" stroke="hsla(38.76379174180329,100%,70%,0.7)" stroke-width="2" fill="none"/><path d="M321.8038047775626 275.2044412307441 Q329.8038047775626 267.2044412307441 333.8038047775626 273.2044412307441 Q337.8038047775626 267.2044412307441 345.8038047775626 275.2044412307441" stroke="hsla(38.76379174180329,100%,70%,0.7)" stroke-width="2" fill="none"/><path d="M635.6770762354136 218.42091054655612 Q643.6770762354136 210.42091054655612 647.6770762354136 216.42091054655612 Q651.6770762354136 210.42091054655612 659.6770762354136 218.42091054655612" stroke="hsla(38.76379174180329,100%,70%,0.7)" stroke-width="2" fill="none"/><rect x="0" y="0" width="1200" height="750" fill="url(#vign-il-san-pietro)"/><rect x="18" y="18" width="1164" height="714" fill="none" stroke="rgba(255,255,255,0.10)" stroke-width="1.2"/></g></svg>