<svg xmlns="http://www.w3.org/2000/svg" viewBox="0 0 1200 750" width="1200" height="750"><defs>
    <linearGradient id="sky-art-basel-basel-2026" x1="0" y1="0" x2="0" y2="1"><stop offset="0" stop-color="hsla(216.76073846779764,30%,8%,1)"/><stop offset="1" stop-color="hsla(211.76073846779764,25%,24%,1)"/></linearGradient>
    <radialGradient id="glow-art-basel-basel-2026" cx="0.5" cy="0.5" r="0.5"><stop offset="0" stop-color="hsla(196.76073846779764,20%,82%,0.55)"/><stop offset="0.5" stop-color="hsla(196.76073846779764,20%,82%,0.12)"/><stop offset="1" stop-color="hsla(196.76073846779764,20%,82%,0)"/></radialGradient>
    <linearGradient id="vign-art-basel-basel-2026" x1="0" y1="0" x2="0" y2="1"><stop offset="0" stop-color="rgba(0,0,0,0.25)"/><stop offset="0.35" stop-color="rgba(0,0,0,0)"/><stop offset="1" stop-color="rgba(0,0,0,0.45)"/></linearGradient>
    <clipPath id="clip-art-basel-basel-2026"><rect width="1200" height="750"/></clipPath>
  </defs><g clip-path="url(#clip-art-basel-basel-2026)"><rect width="1200" height="750" fill="url(#sky-art-basel-basel-2026)"/><rect x="0" y="0" width="1200" height="750" fill="hsla(210.76073846779764,22%,22%,1)"/><rect x="0" y="560" width="1200" height="190" fill="hsla(212.76073846779764,25%,12%,1)"/><rect x="130" y="141.00293861702085" width="260" height="300" fill="hsla(211.76073846779764,25%,24%,1)" stroke="hsla(196.76073846779764,20%,82%,0.6)" stroke-width="4"/><circle cx="260" cy="291.00293861702085" r="70" fill="hsla(183.76073846779764,80%,60%,1)"/><ellipse cx="260" cy="101.00293861702085" rx="120" ry="30" fill="url(#glow-art-basel-basel-2026)"/><rect x="470" y="153.39260931825265" width="260" height="300" fill="hsla(211.76073846779764,25%,24%,1)" stroke="hsla(196.76073846779764,20%,82%,0.6)" stroke-width="4"/><rect x="520" y="213.39260931825265" width="160" height="180" fill="hsla(183.76073846779764,80%,60%,0.85)" transform="rotate(1.6 600 303.39260931825265)"/><ellipse cx="600" cy="113.39260931825265" rx="120" ry="30" fill="url(#glow-art-basel-basel-2026)"/><rect x="810" y="150.50362542970106" width="260" height="300" fill="hsla(211.76073846779764,25%,24%,1)" stroke="hsla(196.76073846779764,20%,82%,0.6)" stroke-width="4"/><circle cx="940" cy="300.50362542970106" r="70" fill="hsla(183.76073846779764,80%,60%,1)"/><ellipse cx="940" cy="110.50362542970106" rx="120" ry="30" fill="url(#glow-art-basel-basel-2026)"/><rect x="0" y="0" width="1200" height="750" fill="url(#vign-art-basel-basel-2026)"/><rect x="18" y="18" width="1164" height="714" fill="none" stroke="rgba(255,255,255,0.10)" stroke-width="1.2"/></g></svg>