<svg xmlns="http://www.w3.org/2000/svg" viewBox="0 0 1200 750" width="1200" height="750"><defs>
    <linearGradient id="sky-aspen-new-year-s-2026" x1="0" y1="0" x2="0" y2="1"><stop offset="0" stop-color="hsla(221.2144155036658,40%,8%,1)"/><stop offset="1" stop-color="hsla(31.214415503665805,55%,26%,1)"/></linearGradient>
    <radialGradient id="glow-aspen-new-year-s-2026" cx="0.5" cy="0.5" r="0.5"><stop offset="0" stop-color="hsla(35.214415503665805,100%,70%,0.55)"/><stop offset="0.5" stop-color="hsla(35.214415503665805,100%,70%,0.12)"/><stop offset="1" stop-color="hsla(35.214415503665805,100%,70%,0)"/></radialGradient>
    <linearGradient id="vign-aspen-new-year-s-2026" x1="0" y1="0" x2="0" y2="1"><stop offset="0" stop-color="rgba(0,0,0,0.25)"/><stop offset="0.35" stop-color="rgba(0,0,0,0)"/><stop offset="1" stop-color="rgba(0,0,0,0.45)"/></linearGradient>
    <clipPath id="clip-aspen-new-year-s-2026"><rect width="1200" height="750"/></clipPath>
  </defs><g clip-path="url(#clip-aspen-new-year-s-2026)"><rect width="1200" height="750" fill="url(#sky-aspen-new-year-s-2026)"/><rect width="1200" height="750" fill="hsla(19.214415503665805,40%,12%,1)"/><line x1="160" y1="0" x2="160" y2="110" stroke="hsla(35.214415503665805,100%,70%,0.35)" stroke-width="1"/><circle cx="160" cy="120" r="26" fill="url(#glow-aspen-new-year-s-2026)"/><circle cx="160" cy="120" r="5" fill="hsla(35.214415503665805,100%,70%,1)"/><line x1="270" y1="0" x2="270" y2="110" stroke="hsla(35.214415503665805,100%,70%,0.35)" stroke-width="1"/><circle cx="270" cy="120" r="26" fill="url(#glow-aspen-new-year-s-2026)"/><circle cx="270" cy="120" r="5" fill="hsla(35.214415503665805,100%,70%,1)"/><line x1="380" y1="0" x2="380" y2="110" stroke="hsla(35.214415503665805,100%,70%,0.35)" stroke-width="1"/><circle cx="380" cy="120" r="26" fill="url(#glow-aspen-new-year-s-2026)"/><circle cx="380" cy="120" r="5" fill="hsla(35.214415503665805,100%,70%,1)"/><line x1="490" y1="0" x2="490" y2="110" stroke="hsla(35.214415503665805,100%,70%,0.35)" stroke-width="1"/><circle cx="490" cy="120" r="26" fill="url(#glow-aspen-new-year-s-2026)"/><circle cx="490" cy="120" r="5" fill="hsla(35.214415503665805,100%,70%,1)"/><line x1="600" y1="0" x2="600" y2="110" stroke="hsla(35.214415503665805,100%,70%,0.35)" stroke-width="1"/><circle cx="600" cy="120" r="26" fill="url(#glow-aspen-new-year-s-2026)"/><circle cx="600" cy="120" r="5" fill="hsla(35.214415503665805,100%,70%,1)"/><line x1="710" y1="0" x2="710" y2="110" stroke="hsla(35.214415503665805,100%,70%,0.35)" stroke-width="1"/><circle cx="710" cy="120" r="26" fill="url(#glow-aspen-new-year-s-2026)"/><circle cx="710" cy="120" r="5" fill="hsla(35.214415503665805,100%,70%,1)"/><line x1="820" y1="0" x2="820" y2="110" stroke="hsla(35.214415503665805,100%,70%,0.35)" stroke-width="1"/><circle cx="820" cy="120" r="26" fill="url(#glow-aspen-new-year-s-2026)"/><circle cx="820" cy="120" r="5" fill="hsla(35.214415503665805,100%,70%,1)"/><line x1="930" y1="0" x2="930" y2="110" stroke="hsla(35.214415503665805,100%,70%,0.35)" stroke-width="1"/><circle cx="930" cy="120" r="26" fill="url(#glow-aspen-new-year-s-2026)"/><circle cx="930" cy="120" r="5" fill="hsla(35.214415503665805,100%,70%,1)"/><line x1="1040" y1="0" x2="1040" y2="110" stroke="hsla(35.214415503665805,100%,70%,0.35)" stroke-width="1"/><circle cx="1040" cy="120" r="26" fill="url(#glow-aspen-new-year-s-2026)"/><circle cx="1040" cy="120" r="5" fill="hsla(35.214415503665805,100%,70%,1)"/><line x1="215" y1="0" x2="215" y2="180" stroke="hsla(35.214415503665805,100%,70%,0.35)" stroke-width="1"/><circle cx="215" cy="190" r="26" fill="url(#glow-aspen-new-year-s-2026)"/><circle cx="215" cy="190" r="5" fill="hsla(35.214415503665805,100%,70%,1)"/><line x1="325" y1="0" x2="325" y2="180" stroke="hsla(35.214415503665805,100%,70%,0.35)" stroke-width="1"/><circle cx="325" cy="190" r="26" fill="url(#glow-aspen-new-year-s-2026)"/><circle cx="325" cy="190" r="5" fill="hsla(35.214415503665805,100%,70%,1)"/><line x1="435" y1="0" x2="435" y2="180" stroke="hsla(35.214415503665805,100%,70%,0.35)" stroke-width="1"/><circle cx="435" cy="190" r="26" fill="url(#glow-aspen-new-year-s-2026)"/><circle cx="435" cy="190" r="5" fill="hsla(35.214415503665805,100%,70%,1)"/><line x1="545" y1="0" x2="545" y2="180" stroke="hsla(35.214415503665805,100%,70%,0.35)" stroke-width="1"/><circle cx="545" cy="190" r="26" fill="url(#glow-aspen-new-year-s-2026)"/><circle cx="545" cy="190" r="5" fill="hsla(35.214415503665805,100%,70%,1)"/><line x1="655" y1="0" x2="655" y2="180" stroke="hsla(35.214415503665805,100%,70%,0.35)" stroke-width="1"/><circle cx="655" cy="190" r="26" fill="url(#glow-aspen-new-year-s-2026)"/><circle cx="655" cy="190" r="5" fill="hsla(35.214415503665805,100%,70%,1)"/><line x1="765" y1="0" x2="765" y2="180" stroke="hsla(35.214415503665805,100%,70%,0.35)" stroke-width="1"/><circle cx="765" cy="190" r="26" fill="url(#glow-aspen-new-year-s-2026)"/><circle cx="765" cy="190" r="5" fill="hsla(35.214415503665805,100%,70%,1)"/><line x1="875" y1="0" x2="875" y2="180" stroke="hsla(35.214415503665805,100%,70%,0.35)" stroke-width="1"/><circle cx="875" cy="190" r="26" fill="url(#glow-aspen-new-year-s-2026)"/><circle cx="875" cy="190" r="5" fill="hsla(35.214415503665805,100%,70%,1)"/><line x1="985" y1="0" x2="985" y2="180" stroke="hsla(35.214415503665805,100%,70%,0.35)" stroke-width="1"/><circle cx="985" cy="190" r="26" fill="url(#glow-aspen-new-year-s-2026)"/><circle cx="985" cy="190" r="5" fill="hsla(35.214415503665805,100%,70%,1)"/><line x1="1095" y1="0" x2="1095" y2="180" stroke="hsla(35.214415503665805,100%,70%,0.35)" stroke-width="1"/><circle cx="1095" cy="190" r="26" fill="url(#glow-aspen-new-year-s-2026)"/><circle cx="1095" cy="190" r="5" fill="hsla(35.214415503665805,100%,70%,1)"/><line x1="160" y1="0" x2="160" y2="250" stroke="hsla(35.214415503665805,100%,70%,0.35)" stroke-width="1"/><circle cx="160" cy="260" r="26" fill="url(#glow-aspen-new-year-s-2026)"/><circle cx="160" cy="260" r="5" fill="hsla(35.214415503665805,100%,70%,1)"/><line x1="270" y1="0" x2="270" y2="250" stroke="hsla(35.214415503665805,100%,70%,0.35)" stroke-width="1"/><circle cx="270" cy="260" r="26" fill="url(#glow-aspen-new-year-s-2026)"/><circle cx="270" cy="260" r="5" fill="hsla(35.214415503665805,100%,70%,1)"/><line x1="380" y1="0" x2="380" y2="250" stroke="hsla(35.214415503665805,100%,70%,0.35)" stroke-width="1"/><circle cx="380" cy="260" r="26" fill="url(#glow-aspen-new-year-s-2026)"/><circle cx="380" cy="260" r="5" fill="hsla(35.214415503665805,100%,70%,1)"/><line x1="490" y1="0" x2="490" y2="250" stroke="hsla(35.214415503665805,100%,70%,0.35)" stroke-width="1"/><circle cx="490" cy="260" r="26" fill="url(#glow-aspen-new-year-s-2026)"/><circle cx="490" cy="260" r="5" fill="hsla(35.214415503665805,100%,70%,1)"/><line x1="600" y1="0" x2="600" y2="250" stroke="hsla(35.214415503665805,100%,70%,0.35)" stroke-width="1"/><circle cx="600" cy="260" r="26" fill="url(#glow-aspen-new-year-s-2026)"/><circle cx="600" cy="260" r="5" fill="hsla(35.214415503665805,100%,70%,1)"/><line x1="710" y1="0" x2="710" y2="250" stroke="hsla(35.214415503665805,100%,70%,0.35)" stroke-width="1"/><circle cx="710" cy="260" r="26" fill="url(#glow-aspen-new-year-s-2026)"/><circle cx="710" cy="260" r="5" fill="hsla(35.214415503665805,100%,70%,1)"/><line x1="820" y1="0" x2="820" y2="250" stroke="hsla(35.214415503665805,100%,70%,0.35)" stroke-width="1"/><circle cx="820" cy="260" r="26" fill="url(#glow-aspen-new-year-s-2026)"/><circle cx="820" cy="260" r="5" fill="hsla(35.214415503665805,100%,70%,1)"/><line x1="930" y1="0" x2="930" y2="250" stroke="hsla(35.214415503665805,100%,70%,0.35)" stroke-width="1"/><circle cx="930" cy="260" r="26" fill="url(#glow-aspen-new-year-s-2026)"/><circle cx="930" cy="260" r="5" fill="hsla(35.214415503665805,100%,70%,1)"/><line x1="1040" y1="0" x2="1040" y2="250" stroke="hsla(35.214415503665805,100%,70%,0.35)" stroke-width="1"/><circle cx="1040" cy="260" r="26" fill="url(#glow-aspen-new-year-s-2026)"/><circle cx="1040" cy="260" r="5" fill="hsla(35.214415503665805,100%,70%,1)"/><path d="M0 0 L0 750 L140 750 Q120 400 180 0 Z" fill="hsla(23.214415503665805,45%,20%,1)"/><path d="M1200 0 L1200 750 L1060 750 Q1080 400 1020 0 Z" fill="hsla(23.214415503665805,45%,20%,1)"/><path d="M0 750 L0 640 L0 607 L9 598 L18 609 L27 595 L36 597 L45 597 L54 618 L63 603 L72 601 L81 614 L90 613 L99 599 L108 621 L117 590 L126 625 L135 613 L144 603 L153 598 L162 610 L171 608 L180 627 L189 606 L198 621 L207 597 L216 608 L225 612 L234 597 L243 592 L252 622 L261 612 L270 604 L279 612 L288 622 L297 587 L306 625 L315 602 L324 628 L333 603 L342 609 L351 589 L360 612 L369 599 L378 601 L387 601 L396 619 L405 599 L414 622 L423 596 L432 603 L441 596 L450 607 L459 612 L468 624 L477 590 L486 622 L495 606 L504 616 L513 616 L522 626 L531 590 L540 615 L549 593 L558 609 L567 607 L576 622 L585 611 L594 628 L603 592 L612 617 L621 608 L630 609 L639 607 L648 602 L657 592 L666 623 L675 598 L684 598 L693 595 L702 603 L711 602 L720 610 L729 599 L738 624 L747 590 L756 602 L765 596 L774 604 L783 604 L792 603 L801 589 L810 629 L819 613 L828 605 L837 590 L846 596 L855 597 L864 630 L873 599 L882 622 L891 590 L900 606 L909 597 L918 620 L927 610 L936 629 L945 614 L954 627 L963 601 L972 604 L981 615 L990 623 L999 600 L1008 619 L1017 608 L1026 624 L1035 596 L1044 604 L1053 605 L1062 628 L1071 608 L1080 615 L1089 600 L1098 613 L1107 588 L1116 609 L1125 598 L1134 620 L1143 599 L1152 609 L1161 605 L1170 602 L1179 613 L1188 625 L1197 597 L1200 750 Z" fill="hsla(221.2144155036658,40%,8%,1)"/><rect x="0" y="0" width="1200" height="750" fill="url(#vign-aspen-new-year-s-2026)"/><rect x="18" y="18" width="1164" height="714" fill="none" stroke="rgba(255,255,255,0.10)" stroke-width="1.2"/></g></svg>