<svg xmlns="http://www.w3.org/2000/svg" viewBox="0 0 1200 750" width="1200" height="750"><defs>
    <linearGradient id="sky-burning-man-for-the-silicon-valley-set-2026" x1="0" y1="0" x2="0" y2="1"><stop offset="0" stop-color="hsla(227.03265384025872,30%,8%,1)"/><stop offset="1" stop-color="hsla(222.03265384025872,25%,24%,1)"/></linearGradient>
    <radialGradient id="glow-burning-man-for-the-silicon-valley-set-2026" cx="0.5" cy="0.5" r="0.5"><stop offset="0" stop-color="hsla(207.03265384025872,20%,82%,0.55)"/><stop offset="0.5" stop-color="hsla(207.03265384025872,20%,82%,0.12)"/><stop offset="1" stop-color="hsla(207.03265384025872,20%,82%,0)"/></radialGradient>
    <linearGradient id="vign-burning-man-for-the-silicon-valley-set-2026" x1="0" y1="0" x2="0" y2="1"><stop offset="0" stop-color="rgba(0,0,0,0.25)"/><stop offset="0.35" stop-color="rgba(0,0,0,0)"/><stop offset="1" stop-color="rgba(0,0,0,0.45)"/></linearGradient>
    <clipPath id="clip-burning-man-for-the-silicon-valley-set-2026"><rect width="1200" height="750"/></clipPath>
  </defs><g clip-path="url(#clip-burning-man-for-the-silicon-valley-set-2026)"><rect width="1200" height="750" fill="url(#sky-burning-man-for-the-silicon-valley-set-2026)"/><rect x="0" y="0" width="1200" height="750" fill="hsla(221.03265384025872,22%,22%,1)"/><rect x="0" y="560" width="1200" height="190" fill="hsla(223.03265384025872,25%,12%,1)"/><rect x="130" y="147.96737689292058" width="260" height="300" fill="hsla(222.03265384025872,25%,24%,1)" stroke="hsla(207.03265384025872,20%,82%,0.6)" stroke-width="4"/><rect x="180" y="207.96737689292058" width="160" height="180" fill="hsla(194.03265384025872,80%,60%,0.85)" transform="rotate(-1.3 260 297.9673768929206)"/><ellipse cx="260" cy="107.96737689292058" rx="120" ry="30" fill="url(#glow-burning-man-for-the-silicon-valley-set-2026)"/><rect x="470" y="141.58793661743402" width="260" height="300" fill="hsla(222.03265384025872,25%,24%,1)" stroke="hsla(207.03265384025872,20%,82%,0.6)" stroke-width="4"/><rect x="520" y="201.58793661743402" width="160" height="180" fill="hsla(194.03265384025872,80%,60%,0.85)" transform="rotate(2.4 600 291.587936617434)"/><ellipse cx="600" cy="101.58793661743402" rx="120" ry="30" fill="url(#glow-burning-man-for-the-silicon-valley-set-2026)"/><rect x="810" y="161.69016724918038" width="260" height="300" fill="hsla(222.03265384025872,25%,24%,1)" stroke="hsla(207.03265384025872,20%,82%,0.6)" stroke-width="4"/><path d="M850 421.6901672491804 L940 211.69016724918038 L1030 421.6901672491804 Z" fill="hsla(207.03265384025872,20%,82%,1)"/><ellipse cx="940" cy="121.69016724918038" rx="120" ry="30" fill="url(#glow-burning-man-for-the-silicon-valley-set-2026)"/><rect x="0" y="0" width="1200" height="750" fill="url(#vign-burning-man-for-the-silicon-valley-set-2026)"/><rect x="18" y="18" width="1164" height="714" fill="none" stroke="rgba(255,255,255,0.10)" stroke-width="1.2"/></g></svg>