<svg xmlns="http://www.w3.org/2000/svg" viewBox="0 0 1200 750" width="1200" height="750"><defs>
    <linearGradient id="sky-milan-design-week-salone-del-mobile-2026" x1="0" y1="0" x2="0" y2="1"><stop offset="0" stop-color="hsla(198.66310610063374,55%,10%,1)"/><stop offset="1" stop-color="hsla(194.66310610063374,45%,30%,1)"/></linearGradient>
    <radialGradient id="glow-milan-design-week-salone-del-mobile-2026" cx="0.5" cy="0.5" r="0.5"><stop offset="0" stop-color="hsla(32.66310610063374,90%,78%,0.55)"/><stop offset="0.5" stop-color="hsla(32.66310610063374,90%,78%,0.12)"/><stop offset="1" stop-color="hsla(32.66310610063374,90%,78%,0)"/></radialGradient>
    <linearGradient id="vign-milan-design-week-salone-del-mobile-2026" x1="0" y1="0" x2="0" y2="1"><stop offset="0" stop-color="rgba(0,0,0,0.25)"/><stop offset="0.35" stop-color="rgba(0,0,0,0)"/><stop offset="1" stop-color="rgba(0,0,0,0.45)"/></linearGradient>
    <clipPath id="clip-milan-design-week-salone-del-mobile-2026"><rect width="1200" height="750"/></clipPath>
  </defs><g clip-path="url(#clip-milan-design-week-salone-del-mobile-2026)"><rect width="1200" height="750" fill="url(#sky-milan-design-week-salone-del-mobile-2026)"/><circle cx="350" cy="208" r="1.3" fill="hsla(32.66310610063374,90%,78%,0.6)" opacity="0.84"/><circle cx="932" cy="174" r="1.4" fill="hsla(32.66310610063374,90%,78%,0.6)" opacity="0.78"/><circle cx="133" cy="194" r="1.8" fill="hsla(32.66310610063374,90%,78%,0.6)" opacity="0.80"/><circle cx="239" cy="158" r="2.0" fill="hsla(32.66310610063374,90%,78%,0.6)" opacity="0.34"/><circle cx="306" cy="241" r="1.2" fill="hsla(32.66310610063374,90%,78%,0.6)" opacity="0.49"/><circle cx="851" cy="112" r="1.6" fill="hsla(32.66310610063374,90%,78%,0.6)" opacity="0.64"/><circle cx="1089" cy="265" r="2.0" fill="hsla(32.66310610063374,90%,78%,0.6)" opacity="0.80"/><circle cx="517" cy="95" r="1.3" fill="hsla(32.66310610063374,90%,78%,0.6)" opacity="0.29"/><circle cx="831" cy="4" r="1.0" fill="hsla(32.66310610063374,90%,78%,0.6)" opacity="0.32"/><circle cx="282" cy="301" r="0.9" fill="hsla(32.66310610063374,90%,78%,0.6)" opacity="0.34"/><circle cx="935" cy="82" r="1.0" fill="hsla(32.66310610063374,90%,78%,0.6)" opacity="0.30"/><circle cx="298" cy="306" r="1.3" fill="hsla(32.66310610063374,90%,78%,0.6)" opacity="0.46"/><circle cx="849" cy="194" r="1.4" fill="hsla(32.66310610063374,90%,78%,0.6)" opacity="0.72"/><circle cx="739" cy="101" r="1.8" fill="hsla(32.66310610063374,90%,78%,0.6)" opacity="0.65"/><circle cx="464" cy="320" r="1.6" fill="hsla(32.66310610063374,90%,78%,0.6)" opacity="0.63"/><circle cx="1097" cy="231" r="2.0" fill="hsla(32.66310610063374,90%,78%,0.6)" opacity="0.38"/><circle cx="248" cy="126" r="2.2" fill="hsla(32.66310610063374,90%,78%,0.6)" opacity="0.56"/><circle cx="1075" cy="250" r="0.8" fill="hsla(32.66310610063374,90%,78%,0.6)" opacity="0.66"/><circle cx="1161" cy="88" r="0.9" fill="hsla(32.66310610063374,90%,78%,0.6)" opacity="0.37"/><circle cx="999" cy="83" r="0.9" fill="hsla(32.66310610063374,90%,78%,0.6)" opacity="0.49"/><circle cx="54" cy="99" r="1.6" fill="hsla(32.66310610063374,90%,78%,0.6)" opacity="0.43"/><circle cx="777" cy="92" r="1.2" fill="hsla(32.66310610063374,90%,78%,0.6)" opacity="0.80"/><circle cx="531" cy="319" r="2.2" fill="hsla(32.66310610063374,90%,78%,0.6)" opacity="0.49"/><circle cx="811" cy="194" r="1.3" fill="hsla(32.66310610063374,90%,78%,0.6)" opacity="0.45"/><circle cx="228" cy="185" r="0.8" fill="hsla(32.66310610063374,90%,78%,0.6)" opacity="0.81"/><circle cx="353" cy="245" r="2.0" fill="hsla(32.66310610063374,90%,78%,0.6)" opacity="0.30"/><circle cx="44" cy="47" r="2.0" fill="hsla(32.66310610063374,90%,78%,0.6)" opacity="0.81"/><circle cx="689" cy="146" r="0.8" fill="hsla(32.66310610063374,90%,78%,0.6)" opacity="0.40"/><circle cx="360" cy="245" r="2.1" fill="hsla(32.66310610063374,90%,78%,0.6)" opacity="0.31"/><circle cx="690" cy="244" r="1.4" fill="hsla(32.66310610063374,90%,78%,0.6)" opacity="0.63"/><circle cx="603" cy="274" r="1.0" fill="hsla(32.66310610063374,90%,78%,0.6)" opacity="0.29"/><circle cx="1167" cy="234" r="2.2" fill="hsla(32.66310610063374,90%,78%,0.6)" opacity="0.65"/><circle cx="14" cy="246" r="1.8" fill="hsla(32.66310610063374,90%,78%,0.6)" opacity="0.30"/><circle cx="253" cy="64" r="1.2" fill="hsla(32.66310610063374,90%,78%,0.6)" opacity="0.62"/><circle cx="996" cy="57" r="2.1" fill="hsla(32.66310610063374,90%,78%,0.6)" opacity="0.83"/><circle cx="975" cy="296" r="1.0" fill="hsla(32.66310610063374,90%,78%,0.6)" opacity="0.51"/><circle cx="1133" cy="312" r="0.7" fill="hsla(32.66310610063374,90%,78%,0.6)" opacity="0.65"/><circle cx="81" cy="247" r="0.7" fill="hsla(32.66310610063374,90%,78%,0.6)" opacity="0.35"/><circle cx="494" cy="4" r="0.7" fill="hsla(32.66310610063374,90%,78%,0.6)" opacity="0.66"/><circle cx="158" cy="112" r="1.4" fill="hsla(32.66310610063374,90%,78%,0.6)" opacity="0.56"/><circle cx="728.7087055854499" cy="320" r="224" fill="url(#glow-milan-design-week-salone-del-mobile-2026)"/><circle cx="728.7087055854499" cy="320" r="70" fill="hsla(32.66310610063374,90%,78%,1)"/><path d="M0 750 L0 520 L18.3 224.6 L118.3 497.0 L237.4 250.3 L337.4 473.3 L431.5 395.4 L531.5 498.7 L622.7 363.2 L722.7 509.8 L797.2 244.9 L897.2 513.0 L1024.7 344.9 L1124.7 495.9 L1215.9 238.9 L1200 520 L1200 750 Z" fill="hsla(196.66310610063374,25%,45%,1)"/><path d="M-7.7 258.6 L18.3 224.6 L44.3 258.6 L30.3 254.6 L18.3 266.6 L6.3 254.6 Z" fill="hsla(32.66310610063374,90%,78%,0.35)"/><path d="M211.4 284.3 L237.4 250.3 L263.4 284.3 L249.4 280.3 L237.4 292.3 L225.4 280.3 Z" fill="hsla(32.66310610063374,90%,78%,0.35)"/><path d="M771.2 278.9 L797.2 244.9 L823.2 278.9 L809.2 274.9 L797.2 286.9 L785.2 274.9 Z" fill="hsla(32.66310610063374,90%,78%,0.35)"/><path d="M1189.9 272.9 L1215.9 238.9 L1241.9 272.9 L1227.9 268.9 L1215.9 280.9 L1203.9 268.9 Z" fill="hsla(32.66310610063374,90%,78%,0.35)"/><path d="M0 750 L0 580 L-19.5 376.8 L55.5 563.3 L153.1 367.1 L228.1 547.9 L311.5 492.8 L386.5 575.3 L456.9 443.2 L531.9 546.5 L623.7 468.9 L698.7 533.7 L737.6 467.7 L812.6 561.8 L928.0 363.4 L1003.0 573.9 L1039.8 462.1 L1114.8 579.7 L1227.3 500.1 L1200 580 L1200 750 Z" fill="hsla(198.66310610063374,30%,28%,1)"/><path d="M-45.5 410.8 L-19.5 376.8 L6.5 410.8 L-7.5 406.8 L-19.5 418.8 L-31.5 406.8 Z" fill="hsla(32.66310610063374,90%,78%,0.25)"/><path d="M127.1 401.1 L153.1 367.1 L179.1 401.1 L165.1 397.1 L153.1 409.1 L141.1 397.1 Z" fill="hsla(32.66310610063374,90%,78%,0.25)"/><path d="M430.9 477.2 L456.9 443.2 L482.9 477.2 L468.9 473.2 L456.9 485.2 L444.9 473.2 Z" fill="hsla(32.66310610063374,90%,78%,0.25)"/><path d="M902.0 397.4 L928.0 363.4 L954.0 397.4 L940.0 393.4 L928.0 405.4 L916.0 393.4 Z" fill="hsla(32.66310610063374,90%,78%,0.25)"/><rect x="0" y="580" width="1200" height="170" fill="hsla(202.66310610063374,35%,14%,1)"/><rect x="385" y="663" width="78" height="2" fill="hsla(32.66310610063374,90%,78%,0.12)"/><rect x="707" y="701" width="97" height="2" fill="hsla(32.66310610063374,90%,78%,0.12)"/><rect x="137" y="700" width="70" height="2" fill="hsla(32.66310610063374,90%,78%,0.12)"/><rect x="735" y="616" width="227" height="2" fill="hsla(32.66310610063374,90%,78%,0.12)"/><rect x="867" y="668" width="194" height="2" fill="hsla(32.66310610063374,90%,78%,0.12)"/><rect x="424" y="720" width="106" height="2" fill="hsla(32.66310610063374,90%,78%,0.12)"/><rect x="187" y="686" width="140" height="2" fill="hsla(32.66310610063374,90%,78%,0.12)"/><rect x="427" y="663" width="147" height="2" fill="hsla(32.66310610063374,90%,78%,0.12)"/><rect x="986" y="667" width="204" height="2" fill="hsla(32.66310610063374,90%,78%,0.12)"/><rect x="140" y="697" width="167" height="2" fill="hsla(32.66310610063374,90%,78%,0.12)"/><rect x="811" y="703" width="207" height="2" fill="hsla(32.66310610063374,90%,78%,0.12)"/><rect x="413" y="612" width="180" height="2" fill="hsla(32.66310610063374,90%,78%,0.12)"/><rect x="543" y="610" width="98" height="2" fill="hsla(32.66310610063374,90%,78%,0.12)"/><rect x="1200" y="696" width="170" height="2" fill="hsla(32.66310610063374,90%,78%,0.12)"/><rect x="0" y="0" width="1200" height="750" fill="url(#vign-milan-design-week-salone-del-mobile-2026)"/><rect x="18" y="18" width="1164" height="714" fill="none" stroke="rgba(255,255,255,0.10)" stroke-width="1.2"/></g></svg>