<svg xmlns="http://www.w3.org/2000/svg" viewBox="0 0 1200 750" width="1200" height="750"><defs>
    <linearGradient id="sky-st-barths-new-year-s-eve-2026" x1="0" y1="0" x2="0" y2="1"><stop offset="0" stop-color="hsla(185.13729968853295,60%,14%,1)"/><stop offset="1" stop-color="hsla(167.13729968853295,60%,38%,1)"/></linearGradient>
    <radialGradient id="glow-st-barths-new-year-s-eve-2026" cx="0.5" cy="0.5" r="0.5"><stop offset="0" stop-color="hsla(37.13729968853295,100%,76%,0.55)"/><stop offset="0.5" stop-color="hsla(37.13729968853295,100%,76%,0.12)"/><stop offset="1" stop-color="hsla(37.13729968853295,100%,76%,0)"/></radialGradient>
    <linearGradient id="vign-st-barths-new-year-s-eve-2026" x1="0" y1="0" x2="0" y2="1"><stop offset="0" stop-color="rgba(0,0,0,0.25)"/><stop offset="0.35" stop-color="rgba(0,0,0,0)"/><stop offset="1" stop-color="rgba(0,0,0,0.45)"/></linearGradient>
    <clipPath id="clip-st-barths-new-year-s-eve-2026"><rect width="1200" height="750"/></clipPath>
  </defs><g clip-path="url(#clip-st-barths-new-year-s-eve-2026)"><rect width="1200" height="750" fill="url(#sky-st-barths-new-year-s-eve-2026)"/><circle cx="170" cy="227" r="2.1" fill="hsla(37.13729968853295,100%,76%,0.4)" opacity="0.81"/><circle cx="1090" cy="109" r="1.9" fill="hsla(37.13729968853295,100%,76%,0.4)" opacity="0.37"/><circle cx="263" cy="67" r="2.1" fill="hsla(37.13729968853295,100%,76%,0.4)" opacity="0.54"/><circle cx="943" cy="204" r="1.0" fill="hsla(37.13729968853295,100%,76%,0.4)" opacity="0.66"/><circle cx="670" cy="171" r="1.5" fill="hsla(37.13729968853295,100%,76%,0.4)" opacity="0.53"/><circle cx="799" cy="50" r="1.1" fill="hsla(37.13729968853295,100%,76%,0.4)" opacity="0.84"/><circle cx="768" cy="252" r="1.4" fill="hsla(37.13729968853295,100%,76%,0.4)" opacity="0.35"/><circle cx="424" cy="25" r="1.9" fill="hsla(37.13729968853295,100%,76%,0.4)" opacity="0.63"/><circle cx="46" cy="44" r="1.6" fill="hsla(37.13729968853295,100%,76%,0.4)" opacity="0.32"/><circle cx="672" cy="89" r="1.9" fill="hsla(37.13729968853295,100%,76%,0.4)" opacity="0.29"/><circle cx="810" cy="171" r="1.7" fill="hsla(37.13729968853295,100%,76%,0.4)" opacity="0.27"/><circle cx="1015" cy="12" r="1.5" fill="hsla(37.13729968853295,100%,76%,0.4)" opacity="0.78"/><circle cx="30" cy="19" r="1.9" fill="hsla(37.13729968853295,100%,76%,0.4)" opacity="0.60"/><circle cx="1004" cy="218" r="2.0" fill="hsla(37.13729968853295,100%,76%,0.4)" opacity="0.44"/><circle cx="268" cy="143" r="1.4" fill="hsla(37.13729968853295,100%,76%,0.4)" opacity="0.61"/><circle cx="920" cy="133" r="0.7" fill="hsla(37.13729968853295,100%,76%,0.4)" opacity="0.46"/><circle cx="635" cy="243" r="1.9" fill="hsla(37.13729968853295,100%,76%,0.4)" opacity="0.78"/><circle cx="639" cy="101" r="1.0" fill="hsla(37.13729968853295,100%,76%,0.4)" opacity="0.76"/><circle cx="878" cy="81" r="0.9" fill="hsla(37.13729968853295,100%,76%,0.4)" opacity="0.47"/><circle cx="1043" cy="112" r="2.0" fill="hsla(37.13729968853295,100%,76%,0.4)" opacity="0.65"/><circle cx="402.4469499941915" cy="300" r="204.8" fill="url(#glow-st-barths-new-year-s-eve-2026)"/><circle cx="402.4469499941915" cy="300" r="64" fill="hsla(37.13729968853295,100%,76%,1)"/><rect x="0" y="420" width="1200" height="330" fill="hsla(179.13729968853295,45%,16%,1)"/><rect x="933" y="712" width="183" height="2" rx="1" fill="hsla(37.13729968853295,100%,76%,0.12924491487443446)"/><rect x="453" y="657" width="200" height="2" rx="1" fill="hsla(37.13729968853295,100%,76%,0.10210774801671504)"/><rect x="263" y="668" width="91" height="2" rx="1" fill="hsla(37.13729968853295,100%,76%,0.0604765459895134)"/><rect x="322" y="481" width="234" height="2" rx="1" fill="hsla(37.13729968853295,100%,76%,0.18102360013872387)"/><rect x="466" y="536" width="187" height="2" rx="1" fill="hsla(37.13729968853295,100%,76%,0.17123299933969977)"/><rect x="717" y="691" width="107" height="2" rx="1" fill="hsla(37.13729968853295,100%,76%,0.13488346252590416)"/><rect x="659" y="649" width="151" height="2" rx="1" fill="hsla(37.13729968853295,100%,76%,0.06614391874521972)"/><rect x="592" y="497" width="248" height="2" rx="1" fill="hsla(37.13729968853295,100%,76%,0.0564089372009039)"/><rect x="546" y="539" width="134" height="2" rx="1" fill="hsla(37.13729968853295,100%,76%,0.19086680714040993)"/><rect x="1198" y="662" width="89" height="2" rx="1" fill="hsla(37.13729968853295,100%,76%,0.08966549344360829)"/><rect x="545" y="451" width="100" height="2" rx="1" fill="hsla(37.13729968853295,100%,76%,0.11424520943313837)"/><rect x="531" y="440" width="225" height="2" rx="1" fill="hsla(37.13729968853295,100%,76%,0.09828294146806002)"/><rect x="643" y="483" width="53" height="2" rx="1" fill="hsla(37.13729968853295,100%,76%,0.1616455467417836)"/><rect x="229" y="624" width="63" height="2" rx="1" fill="hsla(37.13729968853295,100%,76%,0.17867336645722387)"/><rect x="452" y="576" width="144" height="2" rx="1" fill="hsla(37.13729968853295,100%,76%,0.1538671310245991)"/><rect x="1053" y="535" width="254" height="2" rx="1" fill="hsla(37.13729968853295,100%,76%,0.08083709090948105)"/><rect x="273" y="501" width="227" height="2" rx="1" fill="hsla(37.13729968853295,100%,76%,0.12962783277034762)"/><rect x="857" y="517" width="69" height="2" rx="1" fill="hsla(37.13729968853295,100%,76%,0.19992210797965526)"/><rect x="631" y="483" width="71" height="2" rx="1" fill="hsla(37.13729968853295,100%,76%,0.134016034565866)"/><rect x="290" y="492" width="107" height="2" rx="1" fill="hsla(37.13729968853295,100%,76%,0.13513439074158667)"/><rect x="975" y="597" width="205" height="2" rx="1" fill="hsla(37.13729968853295,100%,76%,0.1822770069539547)"/><rect x="1129" y="594" width="192" height="2" rx="1" fill="hsla(37.13729968853295,100%,76%,0.11685608126223088)"/><rect x="923" y="613" width="257" height="2" rx="1" fill="hsla(37.13729968853295,100%,76%,0.1959958439692855)"/><rect x="995" y="470" width="182" height="2" rx="1" fill="hsla(37.13729968853295,100%,76%,0.10298807062208654)"/><rect x="98" y="446" width="222" height="2" rx="1" fill="hsla(37.13729968853295,100%,76%,0.10368820760399103)"/><rect x="613" y="697" width="47" height="2" rx="1" fill="hsla(37.13729968853295,100%,76%,0.11905755907297134)"/><path d="M757.6735339814331 499.87015669234097 L872.0650202280376 499.87015669234097 L856.050212153513 518.1727944917977 L769.1126826060936 518.1727944917977 Z" fill="hsla(189.13729968853295,50%,10%,1)"/>
    <path d="M816.8692771047354 497.87015669234097 L816.8692771047354 374.03952182107605 L877.7845945403678 493.87015669234097 Z" fill="hsla(37.13729968853295,100%,76%,0.9)"/>
    <path d="M810.8692771047354 495.87015669234097 L810.8692771047354 396.91781907039694 L763.3931082937634 489.87015669234097 Z" fill="hsla(37.13729968853295,100%,76%,0.9)" opacity="0.85"/><path d="M314.32171398424543 538.8808920746669 L382.25848367786966 538.8808920746669 L372.7473359207623 549.7507752256467 L321.11539095360786 549.7507752256467 Z" fill="hsla(189.13729968853295,50%,10%,1)"/>
    <path d="M350.29009883105755 536.8808920746669 L350.29009883105755 464.15044541168027 L385.6553221625509 532.8808920746669 Z" fill="hsla(37.13729968853295,100%,76%,0.9)"/>
    <path d="M344.29009883105755 534.8808920746669 L344.29009883105755 477.7377993504051 L317.71855246892665 528.8808920746669 Z" fill="hsla(37.13729968853295,100%,76%,0.9)" opacity="0.85"/><path d="M465.0469361850992 492.19732326455414 L569.2342478921637 492.19732326455414 L554.6480242531746 508.86729313768444 L475.46566735580564 508.86729313768444 Z" fill="hsla(189.13729968853295,50%,10%,1)"/>
    <path d="M519.1405920386314 490.19732326455414 L519.1405920386314 377.5912803867832 L574.4436134775169 486.19732326455414 Z" fill="hsla(37.13729968853295,100%,76%,0.9)"/>
    <path d="M513.1405920386314 488.19732326455414 L513.1405920386314 398.4287427281961 L470.2563017704524 482.19732326455414 Z" fill="hsla(37.13729968853295,100%,76%,0.9)" opacity="0.85"/><path d="M240.98372275242582 492.2706692200154 L332.15336790075526 492.2706692200154 L319.38961757998914 506.8578124437481 L250.10068726725876 506.8578124437481 Z" fill="hsla(189.13729968853295,50%,10%,1)"/>
    <path d="M288.56854532659054 490.2706692200154 L288.56854532659054 391.984059556853 L336.7118501581717 486.2706692200154 Z" fill="hsla(37.13729968853295,100%,76%,0.9)"/>
    <path d="M282.56854532659054 488.2706692200154 L282.56854532659054 410.2179885865189 L245.5422050098423 482.2706692200154 Z" fill="hsla(37.13729968853295,100%,76%,0.9)" opacity="0.85"/><path d="M0 750 L0 690.0 C42.9 690.0 42.9 694.0 85.7 694.0 C128.6 694.0 128.6 697.3 171.4 697.3 C214.3 697.3 214.3 699.7 257.1 699.7 C300.0 699.7 300.0 700.9 342.9 700.9 C385.7 700.9 385.7 700.9 428.6 700.9 C471.4 700.9 471.4 699.9 514.3 699.9 C557.1 699.9 557.1 698.4 600.0 698.4 C642.9 698.4 642.9 696.8 685.7 696.8 C728.6 696.8 728.6 695.5 771.4 695.5 C814.3 695.5 814.3 694.7 857.1 694.7 C900.0 694.7 900.0 694.2 942.9 694.2 C985.7 694.2 985.7 694.0 1028.6 694.0 C1071.4 694.0 1071.4 693.7 1114.3 693.7 C1157.1 693.7 1157.1 692.8 1200.0 692.8 L1200 750 Z" fill="hsla(189.13729968853295,50%,10%,1)"/><rect x="0" y="0" width="1200" height="750" fill="url(#vign-st-barths-new-year-s-eve-2026)"/><rect x="18" y="18" width="1164" height="714" fill="none" stroke="rgba(255,255,255,0.10)" stroke-width="1.2"/></g></svg>