<svg xmlns="http://www.w3.org/2000/svg" viewBox="0 0 1200 750" width="1200" height="750"><defs>
    <linearGradient id="sky-yacht-sunreef-80" x1="0" y1="0" x2="0" y2="1"><stop offset="0" stop-color="hsla(191.78756141476333,60%,14%,1)"/><stop offset="1" stop-color="hsla(173.78756141476333,60%,38%,1)"/></linearGradient>
    <radialGradient id="glow-yacht-sunreef-80" cx="0.5" cy="0.5" r="0.5"><stop offset="0" stop-color="hsla(43.78756141476333,100%,76%,0.55)"/><stop offset="0.5" stop-color="hsla(43.78756141476333,100%,76%,0.12)"/><stop offset="1" stop-color="hsla(43.78756141476333,100%,76%,0)"/></radialGradient>
    <linearGradient id="vign-yacht-sunreef-80" x1="0" y1="0" x2="0" y2="1"><stop offset="0" stop-color="rgba(0,0,0,0.25)"/><stop offset="0.35" stop-color="rgba(0,0,0,0)"/><stop offset="1" stop-color="rgba(0,0,0,0.45)"/></linearGradient>
    <clipPath id="clip-yacht-sunreef-80"><rect width="1200" height="750"/></clipPath>
  </defs><g clip-path="url(#clip-yacht-sunreef-80)"><rect width="1200" height="750" fill="url(#sky-yacht-sunreef-80)"/><circle cx="55" cy="15" r="1.5" fill="hsla(43.78756141476333,100%,76%,0.4)" opacity="0.57"/><circle cx="736" cy="43" r="1.8" fill="hsla(43.78756141476333,100%,76%,0.4)" opacity="0.28"/><circle cx="659" cy="210" r="0.7" fill="hsla(43.78756141476333,100%,76%,0.4)" opacity="0.71"/><circle cx="258" cy="175" r="1.8" fill="hsla(43.78756141476333,100%,76%,0.4)" opacity="0.68"/><circle cx="987" cy="117" r="2.1" fill="hsla(43.78756141476333,100%,76%,0.4)" opacity="0.68"/><circle cx="143" cy="19" r="0.8" fill="hsla(43.78756141476333,100%,76%,0.4)" opacity="0.29"/><circle cx="966" cy="63" r="1.0" fill="hsla(43.78756141476333,100%,76%,0.4)" opacity="0.81"/><circle cx="846" cy="65" r="1.3" fill="hsla(43.78756141476333,100%,76%,0.4)" opacity="0.69"/><circle cx="347" cy="117" r="1.5" fill="hsla(43.78756141476333,100%,76%,0.4)" opacity="0.28"/><circle cx="569" cy="60" r="1.4" fill="hsla(43.78756141476333,100%,76%,0.4)" opacity="0.40"/><circle cx="383" cy="146" r="1.1" fill="hsla(43.78756141476333,100%,76%,0.4)" opacity="0.76"/><circle cx="217" cy="31" r="2.0" fill="hsla(43.78756141476333,100%,76%,0.4)" opacity="0.36"/><circle cx="344" cy="46" r="0.7" fill="hsla(43.78756141476333,100%,76%,0.4)" opacity="0.67"/><circle cx="789" cy="175" r="0.9" fill="hsla(43.78756141476333,100%,76%,0.4)" opacity="0.83"/><circle cx="683" cy="58" r="1.9" fill="hsla(43.78756141476333,100%,76%,0.4)" opacity="0.64"/><circle cx="667" cy="21" r="1.4" fill="hsla(43.78756141476333,100%,76%,0.4)" opacity="0.80"/><circle cx="792" cy="178" r="1.3" fill="hsla(43.78756141476333,100%,76%,0.4)" opacity="0.62"/><circle cx="687" cy="151" r="1.4" fill="hsla(43.78756141476333,100%,76%,0.4)" opacity="0.37"/><circle cx="835" cy="15" r="0.8" fill="hsla(43.78756141476333,100%,76%,0.4)" opacity="0.37"/><circle cx="779" cy="69" r="1.7" fill="hsla(43.78756141476333,100%,76%,0.4)" opacity="0.40"/><circle cx="1103" cy="114" r="1.7" fill="hsla(43.78756141476333,100%,76%,0.4)" opacity="0.83"/><circle cx="80" cy="33" r="1.3" fill="hsla(43.78756141476333,100%,76%,0.4)" opacity="0.30"/><circle cx="1015" cy="250" r="0.9" fill="hsla(43.78756141476333,100%,76%,0.4)" opacity="0.76"/><circle cx="606" cy="96" r="1.4" fill="hsla(43.78756141476333,100%,76%,0.4)" opacity="0.68"/><circle cx="790.6007614452392" cy="280" r="204.8" fill="url(#glow-yacht-sunreef-80)"/><circle cx="790.6007614452392" cy="280" r="64" fill="hsla(43.78756141476333,100%,76%,1)"/><rect x="0" y="520" width="1200" height="230" fill="hsla(185.78756141476333,45%,16%,1)"/><rect x="826" y="555" width="169" height="2" rx="1" fill="hsla(43.78756141476333,100%,76%,0.05745023109018803)"/><rect x="167" y="645" width="54" height="2" rx="1" fill="hsla(43.78756141476333,100%,76%,0.08572679817676544)"/><rect x="515" y="532" width="129" height="2" rx="1" fill="hsla(43.78756141476333,100%,76%,0.05028088044375181)"/><rect x="453" y="692" width="254" height="2" rx="1" fill="hsla(43.78756141476333,100%,76%,0.05806836444884539)"/><rect x="74" y="597" width="111" height="2" rx="1" fill="hsla(43.78756141476333,100%,76%,0.10466900136321783)"/><rect x="14" y="654" width="144" height="2" rx="1" fill="hsla(43.78756141476333,100%,76%,0.1664342949539423)"/><rect x="908" y="544" width="113" height="2" rx="1" fill="hsla(43.78756141476333,100%,76%,0.159121138677001)"/><rect x="373" y="618" width="129" height="2" rx="1" fill="hsla(43.78756141476333,100%,76%,0.11341238398104907)"/><rect x="422" y="709" width="235" height="2" rx="1" fill="hsla(43.78756141476333,100%,76%,0.11517450205981732)"/><rect x="270" y="710" width="202" height="2" rx="1" fill="hsla(43.78756141476333,100%,76%,0.14357138499617578)"/><rect x="971" y="545" width="196" height="2" rx="1" fill="hsla(43.78756141476333,100%,76%,0.20806592743843794)"/><rect x="937" y="705" width="192" height="2" rx="1" fill="hsla(43.78756141476333,100%,76%,0.14990756079554557)"/><rect x="400" y="661" width="72" height="2" rx="1" fill="hsla(43.78756141476333,100%,76%,0.1541937778517604)"/><rect x="155" y="543" width="192" height="2" rx="1" fill="hsla(43.78756141476333,100%,76%,0.14103844650089742)"/><rect x="222" y="611" width="44" height="2" rx="1" fill="hsla(43.78756141476333,100%,76%,0.18155595220625403)"/><rect x="773" y="711" width="133" height="2" rx="1" fill="hsla(43.78756141476333,100%,76%,0.1835374469682574)"/><rect x="846" y="629" width="119" height="2" rx="1" fill="hsla(43.78756141476333,100%,76%,0.180586411356926)"/><rect x="776" y="689" width="43" height="2" rx="1" fill="hsla(43.78756141476333,100%,76%,0.12514715779572727)"/><rect x="1084" y="700" width="162" height="2" rx="1" fill="hsla(43.78756141476333,100%,76%,0.08505715254694224)"/><rect x="424" y="627" width="84" height="2" rx="1" fill="hsla(43.78756141476333,100%,76%,0.06512987866997719)"/><rect x="1109" y="720" width="42" height="2" rx="1" fill="hsla(43.78756141476333,100%,76%,0.16854743964970112)"/><rect x="93" y="638" width="44" height="2" rx="1" fill="hsla(43.78756141476333,100%,76%,0.07289006385952235)"/><rect x="1137" y="625" width="240" height="2" rx="1" fill="hsla(43.78756141476333,100%,76%,0.16640334334224463)"/><rect x="1114" y="549" width="128" height="2" rx="1" fill="hsla(43.78756141476333,100%,76%,0.12884928222745656)"/><rect x="686" y="721" width="140" height="2" rx="1" fill="hsla(43.78756141476333,100%,76%,0.18797683630138634)"/><rect x="1179" y="689" width="191" height="2" rx="1" fill="hsla(43.78756141476333,100%,76%,0.06328897025436163)"/><path d="M356 520 Q386 480 476 476 L814 484 Q854 490 844 520 Z" fill="#f3f6fa"/><rect x="594" y="80" width="8" height="400" fill="#f3f6fa"/><path d="M608 90 L608 460 L775.6800000000001 460 Z" fill="#f3f6fa" opacity="0.9"/><path d="M588 140 L588 460 L434.08 460 Z" fill="#f3f6fa" opacity="0.8"/><path d="M0 750 L0 571.9 C42.9 571.9 42.9 572.1 85.7 572.1 C128.6 572.1 128.6 570.7 171.4 570.7 C214.3 570.7 214.3 568.3 257.1 568.3 C300.0 568.3 300.0 565.7 342.9 565.7 C385.7 565.7 385.7 563.7 428.6 563.7 C471.4 563.7 471.4 562.4 514.3 562.4 C557.1 562.4 557.1 561.7 600.0 561.7 C642.9 561.7 642.9 561.1 685.7 561.1 C728.6 561.1 728.6 560.1 771.4 560.1 C814.3 560.1 814.3 558.3 857.1 558.3 C900.0 558.3 900.0 555.5 942.9 555.5 C985.7 555.5 985.7 552.1 1028.6 552.1 C1071.4 552.1 1071.4 549.1 1114.3 549.1 C1157.1 549.1 1157.1 547.2 1200.0 547.2 L1200 750 Z" fill="hsla(195.78756141476333,50%,10%,1)"/><text x="60" y="690" font-family="JetBrains Mono, ui-monospace, monospace" font-size="26" letter-spacing="6" fill="rgba(255,255,255,0.8)">S/Y HALCYON</text><text x="60" y="654" font-family="Inter, system-ui, sans-serif" font-size="16" letter-spacing="4" fill="rgba(255,255,255,0.45)">SUNREEF YACHTS · 24 M</text><rect x="0" y="0" width="1200" height="750" fill="url(#vign-yacht-sunreef-80)"/><rect x="18" y="18" width="1164" height="714" fill="none" stroke="rgba(255,255,255,0.10)" stroke-width="1.2"/></g></svg>