<svg xmlns="http://www.w3.org/2000/svg" viewBox="0 0 1200 750" width="1200" height="750"><defs>
    <linearGradient id="sky-residence-tokyo-pied" x1="0" y1="0" x2="0" y2="1"><stop offset="0" stop-color="hsla(216.6689849048853,60%,8%,1)"/><stop offset="1" stop-color="hsla(208.6689849048853,55%,16%,1)"/></linearGradient>
    <radialGradient id="glow-residence-tokyo-pied" cx="0.5" cy="0.5" r="0.5"><stop offset="0" stop-color="hsla(40.66898490488529,90%,72%,0.55)"/><stop offset="0.5" stop-color="hsla(40.66898490488529,90%,72%,0.12)"/><stop offset="1" stop-color="hsla(40.66898490488529,90%,72%,0)"/></radialGradient>
    <linearGradient id="vign-residence-tokyo-pied" x1="0" y1="0" x2="0" y2="1"><stop offset="0" stop-color="rgba(0,0,0,0.25)"/><stop offset="0.35" stop-color="rgba(0,0,0,0)"/><stop offset="1" stop-color="rgba(0,0,0,0.45)"/></linearGradient>
    <clipPath id="clip-residence-tokyo-pied"><rect width="1200" height="750"/></clipPath>
  </defs><g clip-path="url(#clip-residence-tokyo-pied)"><rect width="1200" height="750" fill="url(#sky-residence-tokyo-pied)"/><circle cx="423" cy="168" r="1.6" fill="hsla(40.66898490488529,90%,72%,0.5)" opacity="0.45"/><circle cx="675" cy="169" r="1.8" fill="hsla(40.66898490488529,90%,72%,0.5)" opacity="0.55"/><circle cx="176" cy="103" r="1.6" fill="hsla(40.66898490488529,90%,72%,0.5)" opacity="0.33"/><circle cx="1078" cy="152" r="1.4" fill="hsla(40.66898490488529,90%,72%,0.5)" opacity="0.60"/><circle cx="543" cy="152" r="1.2" fill="hsla(40.66898490488529,90%,72%,0.5)" opacity="0.71"/><circle cx="173" cy="49" r="1.9" fill="hsla(40.66898490488529,90%,72%,0.5)" opacity="0.60"/><circle cx="112" cy="228" r="0.7" fill="hsla(40.66898490488529,90%,72%,0.5)" opacity="0.78"/><circle cx="442" cy="206" r="1.0" fill="hsla(40.66898490488529,90%,72%,0.5)" opacity="0.83"/><circle cx="171" cy="276" r="1.2" fill="hsla(40.66898490488529,90%,72%,0.5)" opacity="0.51"/><circle cx="853" cy="79" r="0.7" fill="hsla(40.66898490488529,90%,72%,0.5)" opacity="0.33"/><circle cx="463" cy="154" r="1.6" fill="hsla(40.66898490488529,90%,72%,0.5)" opacity="0.37"/><circle cx="431" cy="197" r="1.5" fill="hsla(40.66898490488529,90%,72%,0.5)" opacity="0.75"/><circle cx="267" cy="96" r="1.3" fill="hsla(40.66898490488529,90%,72%,0.5)" opacity="0.67"/><circle cx="61" cy="167" r="0.9" fill="hsla(40.66898490488529,90%,72%,0.5)" opacity="0.82"/><circle cx="830" cy="202" r="1.7" fill="hsla(40.66898490488529,90%,72%,0.5)" opacity="0.78"/><circle cx="1190" cy="71" r="1.4" fill="hsla(40.66898490488529,90%,72%,0.5)" opacity="0.48"/><circle cx="892" cy="166" r="1.4" fill="hsla(40.66898490488529,90%,72%,0.5)" opacity="0.74"/><circle cx="62" cy="215" r="1.8" fill="hsla(40.66898490488529,90%,72%,0.5)" opacity="0.64"/><circle cx="708" cy="261" r="2.0" fill="hsla(40.66898490488529,90%,72%,0.5)" opacity="0.78"/><circle cx="740" cy="10" r="1.7" fill="hsla(40.66898490488529,90%,72%,0.5)" opacity="0.52"/><circle cx="710" cy="187" r="1.0" fill="hsla(40.66898490488529,90%,72%,0.5)" opacity="0.34"/><circle cx="1121" cy="194" r="0.8" fill="hsla(40.66898490488529,90%,72%,0.5)" opacity="0.26"/><circle cx="1069" cy="89" r="1.0" fill="hsla(40.66898490488529,90%,72%,0.5)" opacity="0.81"/><circle cx="1115" cy="259" r="0.8" fill="hsla(40.66898490488529,90%,72%,0.5)" opacity="0.29"/><circle cx="922" cy="244" r="0.8" fill="hsla(40.66898490488529,90%,72%,0.5)" opacity="0.81"/><circle cx="1045" cy="10" r="1.7" fill="hsla(40.66898490488529,90%,72%,0.5)" opacity="0.26"/><circle cx="561" cy="154" r="1.3" fill="hsla(40.66898490488529,90%,72%,0.5)" opacity="0.56"/><circle cx="695" cy="277" r="1.0" fill="hsla(40.66898490488529,90%,72%,0.5)" opacity="0.65"/><circle cx="296" cy="47" r="1.4" fill="hsla(40.66898490488529,90%,72%,0.5)" opacity="0.74"/><circle cx="453" cy="218" r="0.9" fill="hsla(40.66898490488529,90%,72%,0.5)" opacity="0.80"/><circle cx="669.5325387641788" cy="260" r="192" fill="url(#glow-residence-tokyo-pied)"/><circle cx="669.5325387641788" cy="260" r="60" fill="hsla(40.66898490488529,90%,72%,1)"/><rect x="-20" y="524" width="94" height="116" fill="hsla(206.6689849048853,35%,26%,1)"/><rect x="8" y="496" width="38" height="60" fill="hsla(206.6689849048853,35%,26%,1)"/><rect x="-12" y="536" width="5" height="7" fill="hsla(40.66898490488529,90%,72%,0.6)" opacity="0.42"/><rect x="44" y="536" width="5" height="7" fill="hsla(40.66898490488529,90%,72%,0.6)" opacity="0.44"/><rect x="30" y="552" width="5" height="7" fill="hsla(40.66898490488529,90%,72%,0.6)" opacity="0.53"/><rect x="58" y="552" width="5" height="7" fill="hsla(40.66898490488529,90%,72%,0.6)" opacity="0.63"/><rect x="30" y="568" width="5" height="7" fill="hsla(40.66898490488529,90%,72%,0.6)" opacity="0.43"/><rect x="44" y="568" width="5" height="7" fill="hsla(40.66898490488529,90%,72%,0.6)" opacity="0.53"/><rect x="58" y="568" width="5" height="7" fill="hsla(40.66898490488529,90%,72%,0.6)" opacity="0.76"/><rect x="2" y="584" width="5" height="7" fill="hsla(40.66898490488529,90%,72%,0.6)" opacity="0.82"/><rect x="30" y="584" width="5" height="7" fill="hsla(40.66898490488529,90%,72%,0.6)" opacity="0.81"/><rect x="44" y="584" width="5" height="7" fill="hsla(40.66898490488529,90%,72%,0.6)" opacity="0.98"/><rect x="58" y="584" width="5" height="7" fill="hsla(40.66898490488529,90%,72%,0.6)" opacity="0.68"/><rect x="-12" y="600" width="5" height="7" fill="hsla(40.66898490488529,90%,72%,0.6)" opacity="0.59"/><rect x="16" y="600" width="5" height="7" fill="hsla(40.66898490488529,90%,72%,0.6)" opacity="0.99"/><rect x="44" y="600" width="5" height="7" fill="hsla(40.66898490488529,90%,72%,0.6)" opacity="0.58"/><rect x="58" y="600" width="5" height="7" fill="hsla(40.66898490488529,90%,72%,0.6)" opacity="0.65"/><rect x="-12" y="616" width="5" height="7" fill="hsla(40.66898490488529,90%,72%,0.6)" opacity="0.50"/><rect x="2" y="616" width="5" height="7" fill="hsla(40.66898490488529,90%,72%,0.6)" opacity="0.59"/><rect x="30" y="616" width="5" height="7" fill="hsla(40.66898490488529,90%,72%,0.6)" opacity="0.86"/><rect x="58" y="616" width="5" height="7" fill="hsla(40.66898490488529,90%,72%,0.6)" opacity="0.76"/><rect x="90" y="446" width="103" height="194" fill="hsla(206.6689849048853,35%,26%,1)"/><rect x="98" y="458" width="5" height="7" fill="hsla(40.66898490488529,90%,72%,0.6)" opacity="0.62"/><rect x="112" y="458" width="5" height="7" fill="hsla(40.66898490488529,90%,72%,0.6)" opacity="0.47"/><rect x="140" y="458" width="5" height="7" fill="hsla(40.66898490488529,90%,72%,0.6)" opacity="0.77"/><rect x="182" y="458" width="5" height="7" fill="hsla(40.66898490488529,90%,72%,0.6)" opacity="0.99"/><rect x="98" y="474" width="5" height="7" fill="hsla(40.66898490488529,90%,72%,0.6)" opacity="0.66"/><rect x="154" y="474" width="5" height="7" fill="hsla(40.66898490488529,90%,72%,0.6)" opacity="0.51"/><rect x="182" y="474" width="5" height="7" fill="hsla(40.66898490488529,90%,72%,0.6)" opacity="0.44"/><rect x="112" y="490" width="5" height="7" fill="hsla(40.66898490488529,90%,72%,0.6)" opacity="0.42"/><rect x="98" y="506" width="5" height="7" fill="hsla(40.66898490488529,90%,72%,0.6)" opacity="0.58"/><rect x="112" y="506" width="5" height="7" fill="hsla(40.66898490488529,90%,72%,0.6)" opacity="0.84"/><rect x="126" y="506" width="5" height="7" fill="hsla(40.66898490488529,90%,72%,0.6)" opacity="0.89"/><rect x="140" y="506" width="5" height="7" fill="hsla(40.66898490488529,90%,72%,0.6)" opacity="0.72"/><rect x="154" y="506" width="5" height="7" fill="hsla(40.66898490488529,90%,72%,0.6)" opacity="0.59"/><rect x="112" y="522" width="5" height="7" fill="hsla(40.66898490488529,90%,72%,0.6)" opacity="0.77"/><rect x="126" y="522" width="5" height="7" fill="hsla(40.66898490488529,90%,72%,0.6)" opacity="0.66"/><rect x="154" y="522" width="5" height="7" fill="hsla(40.66898490488529,90%,72%,0.6)" opacity="0.76"/><rect x="168" y="522" width="5" height="7" fill="hsla(40.66898490488529,90%,72%,0.6)" opacity="0.53"/><rect x="182" y="522" width="5" height="7" fill="hsla(40.66898490488529,90%,72%,0.6)" opacity="0.76"/><rect x="140" y="538" width="5" height="7" fill="hsla(40.66898490488529,90%,72%,0.6)" opacity="0.70"/><rect x="168" y="538" width="5" height="7" fill="hsla(40.66898490488529,90%,72%,0.6)" opacity="0.40"/><rect x="98" y="554" width="5" height="7" fill="hsla(40.66898490488529,90%,72%,0.6)" opacity="0.48"/><rect x="168" y="554" width="5" height="7" fill="hsla(40.66898490488529,90%,72%,0.6)" opacity="0.47"/><rect x="112" y="570" width="5" height="7" fill="hsla(40.66898490488529,90%,72%,0.6)" opacity="0.94"/><rect x="126" y="570" width="5" height="7" fill="hsla(40.66898490488529,90%,72%,0.6)" opacity="0.81"/><rect x="154" y="570" width="5" height="7" fill="hsla(40.66898490488529,90%,72%,0.6)" opacity="0.84"/><rect x="98" y="586" width="5" height="7" fill="hsla(40.66898490488529,90%,72%,0.6)" opacity="0.84"/><rect x="126" y="586" width="5" height="7" fill="hsla(40.66898490488529,90%,72%,0.6)" opacity="0.71"/><rect x="140" y="586" width="5" height="7" fill="hsla(40.66898490488529,90%,72%,0.6)" opacity="0.55"/><rect x="182" y="586" width="5" height="7" fill="hsla(40.66898490488529,90%,72%,0.6)" opacity="0.55"/><rect x="126" y="602" width="5" height="7" fill="hsla(40.66898490488529,90%,72%,0.6)" opacity="0.85"/><rect x="168" y="602" width="5" height="7" fill="hsla(40.66898490488529,90%,72%,0.6)" opacity="0.96"/><rect x="182" y="602" width="5" height="7" fill="hsla(40.66898490488529,90%,72%,0.6)" opacity="0.94"/><rect x="98" y="618" width="5" height="7" fill="hsla(40.66898490488529,90%,72%,0.6)" opacity="0.47"/><rect x="112" y="618" width="5" height="7" fill="hsla(40.66898490488529,90%,72%,0.6)" opacity="0.65"/><rect x="199" y="512" width="85" height="128" fill="hsla(206.6689849048853,35%,26%,1)"/><rect x="235" y="524" width="5" height="7" fill="hsla(40.66898490488529,90%,72%,0.6)" opacity="0.59"/><rect x="249" y="524" width="5" height="7" fill="hsla(40.66898490488529,90%,72%,0.6)" opacity="0.85"/><rect x="207" y="540" width="5" height="7" fill="hsla(40.66898490488529,90%,72%,0.6)" opacity="0.72"/><rect x="221" y="540" width="5" height="7" fill="hsla(40.66898490488529,90%,72%,0.6)" opacity="0.83"/><rect x="221" y="572" width="5" height="7" fill="hsla(40.66898490488529,90%,72%,0.6)" opacity="0.96"/><rect x="263" y="572" width="5" height="7" fill="hsla(40.66898490488529,90%,72%,0.6)" opacity="0.71"/><rect x="221" y="588" width="5" height="7" fill="hsla(40.66898490488529,90%,72%,0.6)" opacity="0.52"/><rect x="263" y="588" width="5" height="7" fill="hsla(40.66898490488529,90%,72%,0.6)" opacity="0.71"/><rect x="221" y="604" width="5" height="7" fill="hsla(40.66898490488529,90%,72%,0.6)" opacity="0.92"/><rect x="249" y="604" width="5" height="7" fill="hsla(40.66898490488529,90%,72%,0.6)" opacity="0.83"/><rect x="235" y="620" width="5" height="7" fill="hsla(40.66898490488529,90%,72%,0.6)" opacity="0.49"/><rect x="294" y="549" width="91" height="91" fill="hsla(206.6689849048853,35%,26%,1)"/><rect x="321" y="488" width="36" height="60" fill="hsla(206.6689849048853,35%,26%,1)"/><rect x="330" y="561" width="5" height="7" fill="hsla(40.66898490488529,90%,72%,0.6)" opacity="0.57"/><rect x="358" y="561" width="5" height="7" fill="hsla(40.66898490488529,90%,72%,0.6)" opacity="0.64"/><rect x="372" y="561" width="5" height="7" fill="hsla(40.66898490488529,90%,72%,0.6)" opacity="0.54"/><rect x="302" y="577" width="5" height="7" fill="hsla(40.66898490488529,90%,72%,0.6)" opacity="0.47"/><rect x="316" y="577" width="5" height="7" fill="hsla(40.66898490488529,90%,72%,0.6)" opacity="0.87"/><rect x="344" y="577" width="5" height="7" fill="hsla(40.66898490488529,90%,72%,0.6)" opacity="0.71"/><rect x="358" y="577" width="5" height="7" fill="hsla(40.66898490488529,90%,72%,0.6)" opacity="0.85"/><rect x="316" y="593" width="5" height="7" fill="hsla(40.66898490488529,90%,72%,0.6)" opacity="0.58"/><rect x="330" y="593" width="5" height="7" fill="hsla(40.66898490488529,90%,72%,0.6)" opacity="0.51"/><rect x="344" y="609" width="5" height="7" fill="hsla(40.66898490488529,90%,72%,0.6)" opacity="0.89"/><rect x="358" y="609" width="5" height="7" fill="hsla(40.66898490488529,90%,72%,0.6)" opacity="0.67"/><rect x="372" y="609" width="5" height="7" fill="hsla(40.66898490488529,90%,72%,0.6)" opacity="0.47"/><rect x="316" y="625" width="5" height="7" fill="hsla(40.66898490488529,90%,72%,0.6)" opacity="0.41"/><rect x="393" y="487" width="77" height="153" fill="hsla(206.6689849048853,35%,26%,1)"/><rect x="415" y="499" width="5" height="7" fill="hsla(40.66898490488529,90%,72%,0.6)" opacity="0.73"/><rect x="457" y="499" width="5" height="7" fill="hsla(40.66898490488529,90%,72%,0.6)" opacity="0.77"/><rect x="401" y="515" width="5" height="7" fill="hsla(40.66898490488529,90%,72%,0.6)" opacity="0.97"/><rect x="443" y="515" width="5" height="7" fill="hsla(40.66898490488529,90%,72%,0.6)" opacity="0.96"/><rect x="457" y="531" width="5" height="7" fill="hsla(40.66898490488529,90%,72%,0.6)" opacity="0.89"/><rect x="401" y="547" width="5" height="7" fill="hsla(40.66898490488529,90%,72%,0.6)" opacity="0.87"/><rect x="429" y="547" width="5" height="7" fill="hsla(40.66898490488529,90%,72%,0.6)" opacity="0.83"/><rect x="401" y="563" width="5" height="7" fill="hsla(40.66898490488529,90%,72%,0.6)" opacity="0.47"/><rect x="415" y="563" width="5" height="7" fill="hsla(40.66898490488529,90%,72%,0.6)" opacity="0.84"/><rect x="401" y="579" width="5" height="7" fill="hsla(40.66898490488529,90%,72%,0.6)" opacity="0.75"/><rect x="415" y="579" width="5" height="7" fill="hsla(40.66898490488529,90%,72%,0.6)" opacity="0.66"/><rect x="429" y="579" width="5" height="7" fill="hsla(40.66898490488529,90%,72%,0.6)" opacity="0.71"/><rect x="401" y="595" width="5" height="7" fill="hsla(40.66898490488529,90%,72%,0.6)" opacity="0.60"/><rect x="429" y="595" width="5" height="7" fill="hsla(40.66898490488529,90%,72%,0.6)" opacity="0.64"/><rect x="457" y="595" width="5" height="7" fill="hsla(40.66898490488529,90%,72%,0.6)" opacity="0.66"/><rect x="401" y="611" width="5" height="7" fill="hsla(40.66898490488529,90%,72%,0.6)" opacity="0.93"/><rect x="443" y="611" width="5" height="7" fill="hsla(40.66898490488529,90%,72%,0.6)" opacity="0.99"/><rect x="457" y="611" width="5" height="7" fill="hsla(40.66898490488529,90%,72%,0.6)" opacity="0.60"/><rect x="483" y="576" width="67" height="64" fill="hsla(206.6689849048853,35%,26%,1)"/><rect x="491" y="588" width="5" height="7" fill="hsla(40.66898490488529,90%,72%,0.6)" opacity="0.93"/><rect x="519" y="588" width="5" height="7" fill="hsla(40.66898490488529,90%,72%,0.6)" opacity="0.95"/><rect x="533" y="588" width="5" height="7" fill="hsla(40.66898490488529,90%,72%,0.6)" opacity="0.50"/><rect x="519" y="604" width="5" height="7" fill="hsla(40.66898490488529,90%,72%,0.6)" opacity="0.66"/><rect x="533" y="604" width="5" height="7" fill="hsla(40.66898490488529,90%,72%,0.6)" opacity="0.45"/><rect x="491" y="620" width="5" height="7" fill="hsla(40.66898490488529,90%,72%,0.6)" opacity="0.99"/><rect x="559" y="327" width="82" height="313" fill="hsla(206.6689849048853,35%,26%,1)"/><rect x="595" y="339" width="5" height="7" fill="hsla(40.66898490488529,90%,72%,0.6)" opacity="0.97"/><rect x="623" y="339" width="5" height="7" fill="hsla(40.66898490488529,90%,72%,0.6)" opacity="0.51"/><rect x="567" y="355" width="5" height="7" fill="hsla(40.66898490488529,90%,72%,0.6)" opacity="0.53"/><rect x="567" y="371" width="5" height="7" fill="hsla(40.66898490488529,90%,72%,0.6)" opacity="0.99"/><rect x="595" y="371" width="5" height="7" fill="hsla(40.66898490488529,90%,72%,0.6)" opacity="0.89"/><rect x="581" y="387" width="5" height="7" fill="hsla(40.66898490488529,90%,72%,0.6)" opacity="0.75"/><rect x="595" y="387" width="5" height="7" fill="hsla(40.66898490488529,90%,72%,0.6)" opacity="0.78"/><rect x="609" y="387" width="5" height="7" fill="hsla(40.66898490488529,90%,72%,0.6)" opacity="0.43"/><rect x="581" y="403" width="5" height="7" fill="hsla(40.66898490488529,90%,72%,0.6)" opacity="0.83"/><rect x="595" y="403" width="5" height="7" fill="hsla(40.66898490488529,90%,72%,0.6)" opacity="0.97"/><rect x="567" y="419" width="5" height="7" fill="hsla(40.66898490488529,90%,72%,0.6)" opacity="0.91"/><rect x="581" y="419" width="5" height="7" fill="hsla(40.66898490488529,90%,72%,0.6)" opacity="0.76"/><rect x="595" y="419" width="5" height="7" fill="hsla(40.66898490488529,90%,72%,0.6)" opacity="0.50"/><rect x="609" y="419" width="5" height="7" fill="hsla(40.66898490488529,90%,72%,0.6)" opacity="0.70"/><rect x="623" y="419" width="5" height="7" fill="hsla(40.66898490488529,90%,72%,0.6)" opacity="0.73"/><rect x="567" y="435" width="5" height="7" fill="hsla(40.66898490488529,90%,72%,0.6)" opacity="0.51"/><rect x="581" y="435" width="5" height="7" fill="hsla(40.66898490488529,90%,72%,0.6)" opacity="0.93"/><rect x="595" y="435" width="5" height="7" fill="hsla(40.66898490488529,90%,72%,0.6)" opacity="0.72"/><rect x="623" y="435" width="5" height="7" fill="hsla(40.66898490488529,90%,72%,0.6)" opacity="0.95"/><rect x="567" y="451" width="5" height="7" fill="hsla(40.66898490488529,90%,72%,0.6)" opacity="0.94"/><rect x="581" y="451" width="5" height="7" fill="hsla(40.66898490488529,90%,72%,0.6)" opacity="0.48"/><rect x="609" y="451" width="5" height="7" fill="hsla(40.66898490488529,90%,72%,0.6)" opacity="0.75"/><rect x="581" y="467" width="5" height="7" fill="hsla(40.66898490488529,90%,72%,0.6)" opacity="0.70"/><rect x="581" y="483" width="5" height="7" fill="hsla(40.66898490488529,90%,72%,0.6)" opacity="0.43"/><rect x="595" y="483" width="5" height="7" fill="hsla(40.66898490488529,90%,72%,0.6)" opacity="0.58"/><rect x="567" y="499" width="5" height="7" fill="hsla(40.66898490488529,90%,72%,0.6)" opacity="0.45"/><rect x="581" y="499" width="5" height="7" fill="hsla(40.66898490488529,90%,72%,0.6)" opacity="0.64"/><rect x="595" y="499" width="5" height="7" fill="hsla(40.66898490488529,90%,72%,0.6)" opacity="0.50"/><rect x="623" y="499" width="5" height="7" fill="hsla(40.66898490488529,90%,72%,0.6)" opacity="0.46"/><rect x="567" y="515" width="5" height="7" fill="hsla(40.66898490488529,90%,72%,0.6)" opacity="0.58"/><rect x="609" y="515" width="5" height="7" fill="hsla(40.66898490488529,90%,72%,0.6)" opacity="0.60"/><rect x="623" y="515" width="5" height="7" fill="hsla(40.66898490488529,90%,72%,0.6)" opacity="0.97"/><rect x="581" y="531" width="5" height="7" fill="hsla(40.66898490488529,90%,72%,0.6)" opacity="0.71"/><rect x="581" y="547" width="5" height="7" fill="hsla(40.66898490488529,90%,72%,0.6)" opacity="0.44"/><rect x="609" y="547" width="5" height="7" fill="hsla(40.66898490488529,90%,72%,0.6)" opacity="0.50"/><rect x="567" y="563" width="5" height="7" fill="hsla(40.66898490488529,90%,72%,0.6)" opacity="0.63"/><rect x="581" y="563" width="5" height="7" fill="hsla(40.66898490488529,90%,72%,0.6)" opacity="1.00"/><rect x="595" y="563" width="5" height="7" fill="hsla(40.66898490488529,90%,72%,0.6)" opacity="0.79"/><rect x="609" y="563" width="5" height="7" fill="hsla(40.66898490488529,90%,72%,0.6)" opacity="0.55"/><rect x="623" y="563" width="5" height="7" fill="hsla(40.66898490488529,90%,72%,0.6)" opacity="0.43"/><rect x="595" y="579" width="5" height="7" fill="hsla(40.66898490488529,90%,72%,0.6)" opacity="0.49"/><rect x="567" y="595" width="5" height="7" fill="hsla(40.66898490488529,90%,72%,0.6)" opacity="0.65"/><rect x="595" y="595" width="5" height="7" fill="hsla(40.66898490488529,90%,72%,0.6)" opacity="0.86"/><rect x="609" y="595" width="5" height="7" fill="hsla(40.66898490488529,90%,72%,0.6)" opacity="0.83"/><rect x="581" y="611" width="5" height="7" fill="hsla(40.66898490488529,90%,72%,0.6)" opacity="0.46"/><rect x="609" y="611" width="5" height="7" fill="hsla(40.66898490488529,90%,72%,0.6)" opacity="0.52"/><rect x="657" y="322" width="125" height="318" fill="hsla(206.6689849048853,35%,26%,1)"/><rect x="749" y="334" width="5" height="7" fill="hsla(40.66898490488529,90%,72%,0.6)" opacity="0.90"/><rect x="763" y="334" width="5" height="7" fill="hsla(40.66898490488529,90%,72%,0.6)" opacity="0.61"/><rect x="679" y="350" width="5" height="7" fill="hsla(40.66898490488529,90%,72%,0.6)" opacity="0.90"/><rect x="693" y="350" width="5" height="7" fill="hsla(40.66898490488529,90%,72%,0.6)" opacity="0.40"/><rect x="707" y="350" width="5" height="7" fill="hsla(40.66898490488529,90%,72%,0.6)" opacity="0.48"/><rect x="735" y="350" width="5" height="7" fill="hsla(40.66898490488529,90%,72%,0.6)" opacity="0.56"/><rect x="749" y="350" width="5" height="7" fill="hsla(40.66898490488529,90%,72%,0.6)" opacity="0.51"/><rect x="679" y="366" width="5" height="7" fill="hsla(40.66898490488529,90%,72%,0.6)" opacity="0.48"/><rect x="693" y="366" width="5" height="7" fill="hsla(40.66898490488529,90%,72%,0.6)" opacity="0.51"/><rect x="707" y="366" width="5" height="7" fill="hsla(40.66898490488529,90%,72%,0.6)" opacity="0.71"/><rect x="721" y="366" width="5" height="7" fill="hsla(40.66898490488529,90%,72%,0.6)" opacity="0.77"/><rect x="749" y="366" width="5" height="7" fill="hsla(40.66898490488529,90%,72%,0.6)" opacity="0.84"/><rect x="763" y="366" width="5" height="7" fill="hsla(40.66898490488529,90%,72%,0.6)" opacity="0.61"/><rect x="679" y="382" width="5" height="7" fill="hsla(40.66898490488529,90%,72%,0.6)" opacity="0.41"/><rect x="735" y="382" width="5" height="7" fill="hsla(40.66898490488529,90%,72%,0.6)" opacity="0.44"/><rect x="763" y="382" width="5" height="7" fill="hsla(40.66898490488529,90%,72%,0.6)" opacity="0.99"/><rect x="721" y="398" width="5" height="7" fill="hsla(40.66898490488529,90%,72%,0.6)" opacity="0.41"/><rect x="735" y="398" width="5" height="7" fill="hsla(40.66898490488529,90%,72%,0.6)" opacity="0.67"/><rect x="749" y="398" width="5" height="7" fill="hsla(40.66898490488529,90%,72%,0.6)" opacity="0.77"/><rect x="665" y="414" width="5" height="7" fill="hsla(40.66898490488529,90%,72%,0.6)" opacity="0.63"/><rect x="693" y="414" width="5" height="7" fill="hsla(40.66898490488529,90%,72%,0.6)" opacity="0.98"/><rect x="735" y="414" width="5" height="7" fill="hsla(40.66898490488529,90%,72%,0.6)" opacity="0.91"/><rect x="763" y="414" width="5" height="7" fill="hsla(40.66898490488529,90%,72%,0.6)" opacity="0.70"/><rect x="665" y="430" width="5" height="7" fill="hsla(40.66898490488529,90%,72%,0.6)" opacity="0.94"/><rect x="707" y="430" width="5" height="7" fill="hsla(40.66898490488529,90%,72%,0.6)" opacity="0.80"/><rect x="721" y="430" width="5" height="7" fill="hsla(40.66898490488529,90%,72%,0.6)" opacity="0.69"/><rect x="735" y="430" width="5" height="7" fill="hsla(40.66898490488529,90%,72%,0.6)" opacity="0.72"/><rect x="749" y="430" width="5" height="7" fill="hsla(40.66898490488529,90%,72%,0.6)" opacity="0.81"/><rect x="707" y="446" width="5" height="7" fill="hsla(40.66898490488529,90%,72%,0.6)" opacity="0.58"/><rect x="749" y="446" width="5" height="7" fill="hsla(40.66898490488529,90%,72%,0.6)" opacity="0.91"/><rect x="763" y="446" width="5" height="7" fill="hsla(40.66898490488529,90%,72%,0.6)" opacity="0.56"/><rect x="707" y="462" width="5" height="7" fill="hsla(40.66898490488529,90%,72%,0.6)" opacity="0.92"/><rect x="721" y="462" width="5" height="7" fill="hsla(40.66898490488529,90%,72%,0.6)" opacity="0.65"/><rect x="749" y="462" width="5" height="7" fill="hsla(40.66898490488529,90%,72%,0.6)" opacity="0.99"/><rect x="665" y="478" width="5" height="7" fill="hsla(40.66898490488529,90%,72%,0.6)" opacity="0.60"/><rect x="707" y="478" width="5" height="7" fill="hsla(40.66898490488529,90%,72%,0.6)" opacity="0.83"/><rect x="721" y="478" width="5" height="7" fill="hsla(40.66898490488529,90%,72%,0.6)" opacity="0.59"/><rect x="693" y="494" width="5" height="7" fill="hsla(40.66898490488529,90%,72%,0.6)" opacity="0.57"/><rect x="707" y="494" width="5" height="7" fill="hsla(40.66898490488529,90%,72%,0.6)" opacity="0.53"/><rect x="735" y="494" width="5" height="7" fill="hsla(40.66898490488529,90%,72%,0.6)" opacity="0.94"/><rect x="679" y="510" width="5" height="7" fill="hsla(40.66898490488529,90%,72%,0.6)" opacity="0.65"/><rect x="735" y="510" width="5" height="7" fill="hsla(40.66898490488529,90%,72%,0.6)" opacity="0.66"/><rect x="749" y="510" width="5" height="7" fill="hsla(40.66898490488529,90%,72%,0.6)" opacity="0.44"/><rect x="763" y="510" width="5" height="7" fill="hsla(40.66898490488529,90%,72%,0.6)" opacity="0.79"/><rect x="707" y="526" width="5" height="7" fill="hsla(40.66898490488529,90%,72%,0.6)" opacity="0.54"/><rect x="721" y="526" width="5" height="7" fill="hsla(40.66898490488529,90%,72%,0.6)" opacity="0.80"/><rect x="693" y="542" width="5" height="7" fill="hsla(40.66898490488529,90%,72%,0.6)" opacity="0.93"/><rect x="707" y="542" width="5" height="7" fill="hsla(40.66898490488529,90%,72%,0.6)" opacity="0.62"/><rect x="721" y="542" width="5" height="7" fill="hsla(40.66898490488529,90%,72%,0.6)" opacity="0.84"/><rect x="749" y="542" width="5" height="7" fill="hsla(40.66898490488529,90%,72%,0.6)" opacity="0.93"/><rect x="763" y="542" width="5" height="7" fill="hsla(40.66898490488529,90%,72%,0.6)" opacity="0.79"/><rect x="665" y="558" width="5" height="7" fill="hsla(40.66898490488529,90%,72%,0.6)" opacity="0.45"/><rect x="679" y="558" width="5" height="7" fill="hsla(40.66898490488529,90%,72%,0.6)" opacity="0.80"/><rect x="735" y="558" width="5" height="7" fill="hsla(40.66898490488529,90%,72%,0.6)" opacity="0.68"/><rect x="763" y="558" width="5" height="7" fill="hsla(40.66898490488529,90%,72%,0.6)" opacity="0.45"/><rect x="665" y="574" width="5" height="7" fill="hsla(40.66898490488529,90%,72%,0.6)" opacity="0.91"/><rect x="693" y="574" width="5" height="7" fill="hsla(40.66898490488529,90%,72%,0.6)" opacity="0.61"/><rect x="707" y="574" width="5" height="7" fill="hsla(40.66898490488529,90%,72%,0.6)" opacity="0.57"/><rect x="749" y="574" width="5" height="7" fill="hsla(40.66898490488529,90%,72%,0.6)" opacity="0.69"/><rect x="735" y="590" width="5" height="7" fill="hsla(40.66898490488529,90%,72%,0.6)" opacity="0.42"/><rect x="763" y="590" width="5" height="7" fill="hsla(40.66898490488529,90%,72%,0.6)" opacity="0.70"/><rect x="665" y="606" width="5" height="7" fill="hsla(40.66898490488529,90%,72%,0.6)" opacity="0.86"/><rect x="721" y="606" width="5" height="7" fill="hsla(40.66898490488529,90%,72%,0.6)" opacity="0.52"/><rect x="735" y="606" width="5" height="7" fill="hsla(40.66898490488529,90%,72%,0.6)" opacity="0.83"/><rect x="763" y="606" width="5" height="7" fill="hsla(40.66898490488529,90%,72%,0.6)" opacity="0.64"/><rect x="693" y="622" width="5" height="7" fill="hsla(40.66898490488529,90%,72%,0.6)" opacity="0.75"/><rect x="735" y="622" width="5" height="7" fill="hsla(40.66898490488529,90%,72%,0.6)" opacity="0.93"/><rect x="749" y="622" width="5" height="7" fill="hsla(40.66898490488529,90%,72%,0.6)" opacity="0.42"/><rect x="763" y="622" width="5" height="7" fill="hsla(40.66898490488529,90%,72%,0.6)" opacity="0.97"/><rect x="795" y="502" width="67" height="138" fill="hsla(206.6689849048853,35%,26%,1)"/><rect x="815" y="466" width="27" height="60" fill="hsla(206.6689849048853,35%,26%,1)"/><rect x="803" y="530" width="5" height="7" fill="hsla(40.66898490488529,90%,72%,0.6)" opacity="0.60"/><rect x="817" y="530" width="5" height="7" fill="hsla(40.66898490488529,90%,72%,0.6)" opacity="0.99"/><rect x="831" y="530" width="5" height="7" fill="hsla(40.66898490488529,90%,72%,0.6)" opacity="0.90"/><rect x="803" y="546" width="5" height="7" fill="hsla(40.66898490488529,90%,72%,0.6)" opacity="0.69"/><rect x="831" y="562" width="5" height="7" fill="hsla(40.66898490488529,90%,72%,0.6)" opacity="0.65"/><rect x="817" y="578" width="5" height="7" fill="hsla(40.66898490488529,90%,72%,0.6)" opacity="0.40"/><rect x="803" y="594" width="5" height="7" fill="hsla(40.66898490488529,90%,72%,0.6)" opacity="0.95"/><rect x="803" y="610" width="5" height="7" fill="hsla(40.66898490488529,90%,72%,0.6)" opacity="0.97"/><rect x="831" y="610" width="5" height="7" fill="hsla(40.66898490488529,90%,72%,0.6)" opacity="0.89"/><rect x="845" y="610" width="5" height="7" fill="hsla(40.66898490488529,90%,72%,0.6)" opacity="0.60"/><rect x="845" y="626" width="5" height="7" fill="hsla(40.66898490488529,90%,72%,0.6)" opacity="0.46"/><rect x="879" y="517" width="38" height="123" fill="hsla(206.6689849048853,35%,26%,1)"/><rect x="887" y="529" width="5" height="7" fill="hsla(40.66898490488529,90%,72%,0.6)" opacity="0.59"/><rect x="887" y="545" width="5" height="7" fill="hsla(40.66898490488529,90%,72%,0.6)" opacity="0.95"/><rect x="901" y="545" width="5" height="7" fill="hsla(40.66898490488529,90%,72%,0.6)" opacity="0.51"/><rect x="901" y="561" width="5" height="7" fill="hsla(40.66898490488529,90%,72%,0.6)" opacity="0.86"/><rect x="887" y="593" width="5" height="7" fill="hsla(40.66898490488529,90%,72%,0.6)" opacity="0.89"/><rect x="901" y="593" width="5" height="7" fill="hsla(40.66898490488529,90%,72%,0.6)" opacity="0.80"/><rect x="887" y="625" width="5" height="7" fill="hsla(40.66898490488529,90%,72%,0.6)" opacity="0.81"/><rect x="928" y="511" width="117" height="129" fill="hsla(206.6689849048853,35%,26%,1)"/><rect x="964" y="523" width="5" height="7" fill="hsla(40.66898490488529,90%,72%,0.6)" opacity="0.44"/><rect x="992" y="523" width="5" height="7" fill="hsla(40.66898490488529,90%,72%,0.6)" opacity="0.64"/><rect x="1006" y="523" width="5" height="7" fill="hsla(40.66898490488529,90%,72%,0.6)" opacity="0.49"/><rect x="1020" y="523" width="5" height="7" fill="hsla(40.66898490488529,90%,72%,0.6)" opacity="0.84"/><rect x="936" y="539" width="5" height="7" fill="hsla(40.66898490488529,90%,72%,0.6)" opacity="0.47"/><rect x="950" y="539" width="5" height="7" fill="hsla(40.66898490488529,90%,72%,0.6)" opacity="0.57"/><rect x="964" y="539" width="5" height="7" fill="hsla(40.66898490488529,90%,72%,0.6)" opacity="0.64"/><rect x="978" y="539" width="5" height="7" fill="hsla(40.66898490488529,90%,72%,0.6)" opacity="0.43"/><rect x="992" y="539" width="5" height="7" fill="hsla(40.66898490488529,90%,72%,0.6)" opacity="0.60"/><rect x="1006" y="539" width="5" height="7" fill="hsla(40.66898490488529,90%,72%,0.6)" opacity="0.73"/><rect x="964" y="555" width="5" height="7" fill="hsla(40.66898490488529,90%,72%,0.6)" opacity="0.68"/><rect x="1034" y="555" width="5" height="7" fill="hsla(40.66898490488529,90%,72%,0.6)" opacity="0.46"/><rect x="936" y="571" width="5" height="7" fill="hsla(40.66898490488529,90%,72%,0.6)" opacity="0.90"/><rect x="950" y="571" width="5" height="7" fill="hsla(40.66898490488529,90%,72%,0.6)" opacity="0.48"/><rect x="978" y="571" width="5" height="7" fill="hsla(40.66898490488529,90%,72%,0.6)" opacity="0.74"/><rect x="992" y="571" width="5" height="7" fill="hsla(40.66898490488529,90%,72%,0.6)" opacity="0.51"/><rect x="1006" y="571" width="5" height="7" fill="hsla(40.66898490488529,90%,72%,0.6)" opacity="0.72"/><rect x="936" y="587" width="5" height="7" fill="hsla(40.66898490488529,90%,72%,0.6)" opacity="0.76"/><rect x="992" y="587" width="5" height="7" fill="hsla(40.66898490488529,90%,72%,0.6)" opacity="0.56"/><rect x="1006" y="587" width="5" height="7" fill="hsla(40.66898490488529,90%,72%,0.6)" opacity="0.54"/><rect x="1020" y="587" width="5" height="7" fill="hsla(40.66898490488529,90%,72%,0.6)" opacity="0.58"/><rect x="936" y="603" width="5" height="7" fill="hsla(40.66898490488529,90%,72%,0.6)" opacity="0.45"/><rect x="950" y="603" width="5" height="7" fill="hsla(40.66898490488529,90%,72%,0.6)" opacity="0.91"/><rect x="1020" y="603" width="5" height="7" fill="hsla(40.66898490488529,90%,72%,0.6)" opacity="0.72"/><rect x="964" y="619" width="5" height="7" fill="hsla(40.66898490488529,90%,72%,0.6)" opacity="0.47"/><rect x="978" y="619" width="5" height="7" fill="hsla(40.66898490488529,90%,72%,0.6)" opacity="0.67"/><rect x="1020" y="619" width="5" height="7" fill="hsla(40.66898490488529,90%,72%,0.6)" opacity="0.95"/><rect x="1034" y="619" width="5" height="7" fill="hsla(40.66898490488529,90%,72%,0.6)" opacity="0.91"/><rect x="1062" y="474" width="107" height="166" fill="hsla(206.6689849048853,35%,26%,1)"/><rect x="1070" y="486" width="5" height="7" fill="hsla(40.66898490488529,90%,72%,0.6)" opacity="0.45"/><rect x="1084" y="486" width="5" height="7" fill="hsla(40.66898490488529,90%,72%,0.6)" opacity="0.51"/><rect x="1112" y="486" width="5" height="7" fill="hsla(40.66898490488529,90%,72%,0.6)" opacity="0.95"/><rect x="1070" y="502" width="5" height="7" fill="hsla(40.66898490488529,90%,72%,0.6)" opacity="0.79"/><rect x="1084" y="502" width="5" height="7" fill="hsla(40.66898490488529,90%,72%,0.6)" opacity="0.54"/><rect x="1098" y="502" width="5" height="7" fill="hsla(40.66898490488529,90%,72%,0.6)" opacity="0.84"/><rect x="1112" y="502" width="5" height="7" fill="hsla(40.66898490488529,90%,72%,0.6)" opacity="0.86"/><rect x="1126" y="502" width="5" height="7" fill="hsla(40.66898490488529,90%,72%,0.6)" opacity="0.78"/><rect x="1070" y="518" width="5" height="7" fill="hsla(40.66898490488529,90%,72%,0.6)" opacity="0.87"/><rect x="1098" y="518" width="5" height="7" fill="hsla(40.66898490488529,90%,72%,0.6)" opacity="0.44"/><rect x="1140" y="518" width="5" height="7" fill="hsla(40.66898490488529,90%,72%,0.6)" opacity="0.51"/><rect x="1070" y="534" width="5" height="7" fill="hsla(40.66898490488529,90%,72%,0.6)" opacity="0.96"/><rect x="1098" y="534" width="5" height="7" fill="hsla(40.66898490488529,90%,72%,0.6)" opacity="0.81"/><rect x="1154" y="534" width="5" height="7" fill="hsla(40.66898490488529,90%,72%,0.6)" opacity="0.42"/><rect x="1112" y="550" width="5" height="7" fill="hsla(40.66898490488529,90%,72%,0.6)" opacity="0.45"/><rect x="1140" y="550" width="5" height="7" fill="hsla(40.66898490488529,90%,72%,0.6)" opacity="0.73"/><rect x="1154" y="550" width="5" height="7" fill="hsla(40.66898490488529,90%,72%,0.6)" opacity="0.80"/><rect x="1126" y="566" width="5" height="7" fill="hsla(40.66898490488529,90%,72%,0.6)" opacity="0.85"/><rect x="1140" y="566" width="5" height="7" fill="hsla(40.66898490488529,90%,72%,0.6)" opacity="0.46"/><rect x="1154" y="566" width="5" height="7" fill="hsla(40.66898490488529,90%,72%,0.6)" opacity="0.96"/><rect x="1084" y="582" width="5" height="7" fill="hsla(40.66898490488529,90%,72%,0.6)" opacity="0.49"/><rect x="1126" y="582" width="5" height="7" fill="hsla(40.66898490488529,90%,72%,0.6)" opacity="0.97"/><rect x="1140" y="582" width="5" height="7" fill="hsla(40.66898490488529,90%,72%,0.6)" opacity="0.82"/><rect x="1084" y="598" width="5" height="7" fill="hsla(40.66898490488529,90%,72%,0.6)" opacity="0.58"/><rect x="1140" y="598" width="5" height="7" fill="hsla(40.66898490488529,90%,72%,0.6)" opacity="0.57"/><rect x="1070" y="614" width="5" height="7" fill="hsla(40.66898490488529,90%,72%,0.6)" opacity="0.83"/><rect x="1112" y="614" width="5" height="7" fill="hsla(40.66898490488529,90%,72%,0.6)" opacity="0.87"/><rect x="1140" y="614" width="5" height="7" fill="hsla(40.66898490488529,90%,72%,0.6)" opacity="0.84"/><rect x="1175" y="579" width="114" height="61" fill="hsla(206.6689849048853,35%,26%,1)"/><rect x="1197" y="591" width="5" height="7" fill="hsla(40.66898490488529,90%,72%,0.6)" opacity="0.56"/><rect x="1183" y="607" width="5" height="7" fill="hsla(40.66898490488529,90%,72%,0.6)" opacity="0.92"/><rect x="1225" y="607" width="5" height="7" fill="hsla(40.66898490488529,90%,72%,0.6)" opacity="0.61"/><rect x="1239" y="607" width="5" height="7" fill="hsla(40.66898490488529,90%,72%,0.6)" opacity="0.45"/><rect x="1253" y="607" width="5" height="7" fill="hsla(40.66898490488529,90%,72%,0.6)" opacity="0.59"/><rect x="1267" y="607" width="5" height="7" fill="hsla(40.66898490488529,90%,72%,0.6)" opacity="0.68"/><rect x="1197" y="623" width="5" height="7" fill="hsla(40.66898490488529,90%,72%,0.6)" opacity="0.57"/><rect x="1211" y="623" width="5" height="7" fill="hsla(40.66898490488529,90%,72%,0.6)" opacity="0.57"/><rect x="1225" y="623" width="5" height="7" fill="hsla(40.66898490488529,90%,72%,0.6)" opacity="0.81"/><rect x="1267" y="623" width="5" height="7" fill="hsla(40.66898490488529,90%,72%,0.6)" opacity="0.41"/><rect x="1281" y="623" width="5" height="7" fill="hsla(40.66898490488529,90%,72%,0.6)" opacity="0.98"/><rect x="430" y="120" width="340" height="560" fill="hsla(212.6689849048853,45%,10%,1)"/><rect x="450" y="150" width="16" height="22" rx="2" fill="hsla(40.66898490488529,90%,72%,1)" opacity="0.9"/><rect x="484" y="150" width="16" height="22" rx="2" fill="hsla(40.66898490488529,90%,72%,1)" opacity="0.9"/><rect x="552" y="150" width="16" height="22" rx="2" fill="hsla(40.66898490488529,90%,72%,1)" opacity="0.9"/><rect x="586" y="150" width="16" height="22" rx="2" fill="hsla(40.66898490488529,90%,72%,1)" opacity="0.9"/><rect x="620" y="150" width="16" height="22" rx="2" fill="hsla(40.66898490488529,90%,72%,1)" opacity="0.9"/><rect x="654" y="150" width="16" height="22" rx="2" fill="hsla(40.66898490488529,90%,72%,1)" opacity="0.9"/><rect x="688" y="150" width="16" height="22" rx="2" fill="hsla(40.66898490488529,90%,72%,1)" opacity="0.9"/><rect x="722" y="150" width="16" height="22" rx="2" fill="hsla(40.66898490488529,90%,72%,1)" opacity="0.9"/><rect x="756" y="150" width="16" height="22" rx="2" fill="hsla(40.66898490488529,90%,72%,1)" opacity="0.9"/><rect x="450" y="190" width="16" height="22" rx="2" fill="hsla(40.66898490488529,90%,72%,1)" opacity="0.9"/><rect x="518" y="190" width="16" height="22" rx="2" fill="hsla(40.66898490488529,90%,72%,1)" opacity="0.9"/><rect x="552" y="190" width="16" height="22" rx="2" fill="hsla(40.66898490488529,90%,72%,1)" opacity="0.9"/><rect x="620" y="190" width="16" height="22" rx="2" fill="hsla(40.66898490488529,90%,72%,1)" opacity="0.9"/><rect x="654" y="190" width="16" height="22" rx="2" fill="hsla(40.66898490488529,90%,72%,1)" opacity="0.9"/><rect x="756" y="190" width="16" height="22" rx="2" fill="hsla(40.66898490488529,90%,72%,1)" opacity="0.9"/><rect x="518" y="230" width="16" height="22" rx="2" fill="hsla(40.66898490488529,90%,72%,1)" opacity="0.9"/><rect x="552" y="230" width="16" height="22" rx="2" fill="hsla(40.66898490488529,90%,72%,1)" opacity="0.9"/><rect x="620" y="230" width="16" height="22" rx="2" fill="hsla(40.66898490488529,90%,72%,1)" opacity="0.9"/><rect x="654" y="230" width="16" height="22" rx="2" fill="hsla(40.66898490488529,90%,72%,1)" opacity="0.9"/><rect x="722" y="230" width="16" height="22" rx="2" fill="hsla(40.66898490488529,90%,72%,1)" opacity="0.9"/><rect x="756" y="230" width="16" height="22" rx="2" fill="hsla(40.66898490488529,90%,72%,1)" opacity="0.9"/><rect x="450" y="270" width="16" height="22" rx="2" fill="hsla(40.66898490488529,90%,72%,1)" opacity="0.9"/><rect x="484" y="270" width="16" height="22" rx="2" fill="hsla(40.66898490488529,90%,72%,1)" opacity="0.9"/><rect x="552" y="270" width="16" height="22" rx="2" fill="hsla(40.66898490488529,90%,72%,1)" opacity="0.9"/><rect x="620" y="270" width="16" height="22" rx="2" fill="hsla(40.66898490488529,90%,72%,1)" opacity="0.9"/><rect x="722" y="270" width="16" height="22" rx="2" fill="hsla(40.66898490488529,90%,72%,1)" opacity="0.9"/><rect x="756" y="270" width="16" height="22" rx="2" fill="hsla(40.66898490488529,90%,72%,1)" opacity="0.9"/><rect x="518" y="310" width="16" height="22" rx="2" fill="hsla(40.66898490488529,90%,72%,1)" opacity="0.9"/><rect x="552" y="310" width="16" height="22" rx="2" fill="hsla(40.66898490488529,90%,72%,1)" opacity="0.9"/><rect x="586" y="310" width="16" height="22" rx="2" fill="hsla(40.66898490488529,90%,72%,1)" opacity="0.9"/><rect x="654" y="310" width="16" height="22" rx="2" fill="hsla(40.66898490488529,90%,72%,1)" opacity="0.9"/><rect x="688" y="310" width="16" height="22" rx="2" fill="hsla(40.66898490488529,90%,72%,1)" opacity="0.9"/><rect x="756" y="310" width="16" height="22" rx="2" fill="hsla(40.66898490488529,90%,72%,1)" opacity="0.9"/><rect x="450" y="350" width="16" height="22" rx="2" fill="hsla(40.66898490488529,90%,72%,1)" opacity="0.9"/><rect x="518" y="350" width="16" height="22" rx="2" fill="hsla(40.66898490488529,90%,72%,1)" opacity="0.9"/><rect x="552" y="350" width="16" height="22" rx="2" fill="hsla(40.66898490488529,90%,72%,1)" opacity="0.9"/><rect x="586" y="350" width="16" height="22" rx="2" fill="hsla(40.66898490488529,90%,72%,1)" opacity="0.9"/><rect x="620" y="350" width="16" height="22" rx="2" fill="hsla(40.66898490488529,90%,72%,1)" opacity="0.9"/><rect x="654" y="350" width="16" height="22" rx="2" fill="hsla(40.66898490488529,90%,72%,1)" opacity="0.9"/><rect x="688" y="350" width="16" height="22" rx="2" fill="hsla(40.66898490488529,90%,72%,1)" opacity="0.9"/><rect x="722" y="350" width="16" height="22" rx="2" fill="hsla(40.66898490488529,90%,72%,1)" opacity="0.9"/><rect x="756" y="350" width="16" height="22" rx="2" fill="hsla(40.66898490488529,90%,72%,1)" opacity="0.9"/><rect x="450" y="390" width="16" height="22" rx="2" fill="hsla(40.66898490488529,90%,72%,1)" opacity="0.9"/><rect x="484" y="390" width="16" height="22" rx="2" fill="hsla(40.66898490488529,90%,72%,1)" opacity="0.9"/><rect x="586" y="390" width="16" height="22" rx="2" fill="hsla(40.66898490488529,90%,72%,1)" opacity="0.9"/><rect x="620" y="390" width="16" height="22" rx="2" fill="hsla(40.66898490488529,90%,72%,1)" opacity="0.9"/><rect x="654" y="390" width="16" height="22" rx="2" fill="hsla(40.66898490488529,90%,72%,1)" opacity="0.9"/><rect x="722" y="390" width="16" height="22" rx="2" fill="hsla(40.66898490488529,90%,72%,1)" opacity="0.9"/><rect x="756" y="390" width="16" height="22" rx="2" fill="hsla(40.66898490488529,90%,72%,1)" opacity="0.9"/><rect x="450" y="430" width="16" height="22" rx="2" fill="hsla(40.66898490488529,90%,72%,1)" opacity="0.9"/><rect x="484" y="430" width="16" height="22" rx="2" fill="hsla(40.66898490488529,90%,72%,1)" opacity="0.9"/><rect x="586" y="430" width="16" height="22" rx="2" fill="hsla(40.66898490488529,90%,72%,1)" opacity="0.9"/><rect x="620" y="430" width="16" height="22" rx="2" fill="hsla(40.66898490488529,90%,72%,1)" opacity="0.9"/><rect x="654" y="430" width="16" height="22" rx="2" fill="hsla(40.66898490488529,90%,72%,1)" opacity="0.9"/><rect x="688" y="430" width="16" height="22" rx="2" fill="hsla(40.66898490488529,90%,72%,1)" opacity="0.9"/><rect x="722" y="430" width="16" height="22" rx="2" fill="hsla(40.66898490488529,90%,72%,1)" opacity="0.9"/><rect x="450" y="470" width="16" height="22" rx="2" fill="hsla(40.66898490488529,90%,72%,1)" opacity="0.9"/><rect x="552" y="470" width="16" height="22" rx="2" fill="hsla(40.66898490488529,90%,72%,1)" opacity="0.9"/><rect x="586" y="470" width="16" height="22" rx="2" fill="hsla(40.66898490488529,90%,72%,1)" opacity="0.9"/><rect x="620" y="470" width="16" height="22" rx="2" fill="hsla(40.66898490488529,90%,72%,1)" opacity="0.9"/><rect x="654" y="470" width="16" height="22" rx="2" fill="hsla(40.66898490488529,90%,72%,1)" opacity="0.9"/><rect x="722" y="470" width="16" height="22" rx="2" fill="hsla(40.66898490488529,90%,72%,1)" opacity="0.9"/><rect x="450" y="510" width="16" height="22" rx="2" fill="hsla(40.66898490488529,90%,72%,1)" opacity="0.9"/><rect x="552" y="510" width="16" height="22" rx="2" fill="hsla(40.66898490488529,90%,72%,1)" opacity="0.9"/><rect x="586" y="510" width="16" height="22" rx="2" fill="hsla(40.66898490488529,90%,72%,1)" opacity="0.9"/><rect x="620" y="510" width="16" height="22" rx="2" fill="hsla(40.66898490488529,90%,72%,1)" opacity="0.9"/><rect x="654" y="510" width="16" height="22" rx="2" fill="hsla(40.66898490488529,90%,72%,1)" opacity="0.9"/><rect x="688" y="510" width="16" height="22" rx="2" fill="hsla(40.66898490488529,90%,72%,1)" opacity="0.9"/><rect x="722" y="510" width="16" height="22" rx="2" fill="hsla(40.66898490488529,90%,72%,1)" opacity="0.9"/><rect x="756" y="510" width="16" height="22" rx="2" fill="hsla(40.66898490488529,90%,72%,1)" opacity="0.9"/><rect x="450" y="550" width="16" height="22" rx="2" fill="hsla(40.66898490488529,90%,72%,1)" opacity="0.9"/><rect x="518" y="550" width="16" height="22" rx="2" fill="hsla(40.66898490488529,90%,72%,1)" opacity="0.9"/><rect x="688" y="550" width="16" height="22" rx="2" fill="hsla(40.66898490488529,90%,72%,1)" opacity="0.9"/><rect x="722" y="550" width="16" height="22" rx="2" fill="hsla(40.66898490488529,90%,72%,1)" opacity="0.9"/><rect x="756" y="550" width="16" height="22" rx="2" fill="hsla(40.66898490488529,90%,72%,1)" opacity="0.9"/><rect x="484" y="590" width="16" height="22" rx="2" fill="hsla(40.66898490488529,90%,72%,1)" opacity="0.9"/><rect x="518" y="590" width="16" height="22" rx="2" fill="hsla(40.66898490488529,90%,72%,1)" opacity="0.9"/><rect x="552" y="590" width="16" height="22" rx="2" fill="hsla(40.66898490488529,90%,72%,1)" opacity="0.9"/><rect x="620" y="590" width="16" height="22" rx="2" fill="hsla(40.66898490488529,90%,72%,1)" opacity="0.9"/><rect x="654" y="590" width="16" height="22" rx="2" fill="hsla(40.66898490488529,90%,72%,1)" opacity="0.9"/><rect x="688" y="590" width="16" height="22" rx="2" fill="hsla(40.66898490488529,90%,72%,1)" opacity="0.9"/><rect x="722" y="590" width="16" height="22" rx="2" fill="hsla(40.66898490488529,90%,72%,1)" opacity="0.9"/><rect x="756" y="590" width="16" height="22" rx="2" fill="hsla(40.66898490488529,90%,72%,1)" opacity="0.9"/><rect x="552" y="630" width="16" height="22" rx="2" fill="hsla(40.66898490488529,90%,72%,1)" opacity="0.9"/><rect x="586" y="630" width="16" height="22" rx="2" fill="hsla(40.66898490488529,90%,72%,1)" opacity="0.9"/><rect x="688" y="630" width="16" height="22" rx="2" fill="hsla(40.66898490488529,90%,72%,1)" opacity="0.9"/><rect x="430" y="120" width="340" height="70" fill="hsla(40.66898490488529,90%,72%,0.25)"/><rect x="0" y="680" width="1200" height="70" fill="hsla(212.6689849048853,45%,10%,1)"/><text x="60" y="690" font-family="Fraunces, Georgia, serif" font-size="34" fill="rgba(255,255,255,0.85)">Aman Residences Tokyo</text><text x="60" y="646" font-family="Inter, system-ui, sans-serif" font-size="16" letter-spacing="4" fill="rgba(255,255,255,0.45)">TOKYO · PIED-A-TERRE</text><rect x="0" y="0" width="1200" height="750" fill="url(#vign-residence-tokyo-pied)"/><rect x="18" y="18" width="1164" height="714" fill="none" stroke="rgba(255,255,255,0.10)" stroke-width="1.2"/></g></svg>