<svg xmlns="http://www.w3.org/2000/svg" viewBox="0 0 1200 750" width="1200" height="750"><defs>
    <linearGradient id="sky-residence-aspen" x1="0" y1="0" x2="0" y2="1"><stop offset="0" stop-color="hsla(211.78077165782452,55%,10%,1)"/><stop offset="1" stop-color="hsla(207.78077165782452,45%,30%,1)"/></linearGradient>
    <radialGradient id="glow-residence-aspen" cx="0.5" cy="0.5" r="0.5"><stop offset="0" stop-color="hsla(45.780771657824516,90%,78%,0.55)"/><stop offset="0.5" stop-color="hsla(45.780771657824516,90%,78%,0.12)"/><stop offset="1" stop-color="hsla(45.780771657824516,90%,78%,0)"/></radialGradient>
    <linearGradient id="vign-residence-aspen" x1="0" y1="0" x2="0" y2="1"><stop offset="0" stop-color="rgba(0,0,0,0.25)"/><stop offset="0.35" stop-color="rgba(0,0,0,0)"/><stop offset="1" stop-color="rgba(0,0,0,0.45)"/></linearGradient>
    <clipPath id="clip-residence-aspen"><rect width="1200" height="750"/></clipPath>
  </defs><g clip-path="url(#clip-residence-aspen)"><rect width="1200" height="750" fill="url(#sky-residence-aspen)"/><circle cx="117" cy="124" r="0.9" fill="hsla(45.780771657824516,90%,78%,0.5)" opacity="0.78"/><circle cx="39" cy="254" r="0.9" fill="hsla(45.780771657824516,90%,78%,0.5)" opacity="0.76"/><circle cx="473" cy="11" r="1.3" fill="hsla(45.780771657824516,90%,78%,0.5)" opacity="0.83"/><circle cx="60" cy="55" r="1.8" fill="hsla(45.780771657824516,90%,78%,0.5)" opacity="0.74"/><circle cx="96" cy="127" r="1.2" fill="hsla(45.780771657824516,90%,78%,0.5)" opacity="0.47"/><circle cx="1164" cy="78" r="0.7" fill="hsla(45.780771657824516,90%,78%,0.5)" opacity="0.49"/><circle cx="443" cy="193" r="2.0" fill="hsla(45.780771657824516,90%,78%,0.5)" opacity="0.27"/><circle cx="41" cy="189" r="1.9" fill="hsla(45.780771657824516,90%,78%,0.5)" opacity="0.71"/><circle cx="295" cy="191" r="0.8" fill="hsla(45.780771657824516,90%,78%,0.5)" opacity="0.67"/><circle cx="884" cy="138" r="1.0" fill="hsla(45.780771657824516,90%,78%,0.5)" opacity="0.84"/><circle cx="1015" cy="56" r="1.9" fill="hsla(45.780771657824516,90%,78%,0.5)" opacity="0.52"/><circle cx="26" cy="233" r="1.6" fill="hsla(45.780771657824516,90%,78%,0.5)" opacity="0.62"/><circle cx="721" cy="223" r="1.9" fill="hsla(45.780771657824516,90%,78%,0.5)" opacity="0.37"/><circle cx="469" cy="270" r="1.4" fill="hsla(45.780771657824516,90%,78%,0.5)" opacity="0.71"/><circle cx="530" cy="156" r="1.1" fill="hsla(45.780771657824516,90%,78%,0.5)" opacity="0.28"/><circle cx="1033" cy="102" r="1.8" fill="hsla(45.780771657824516,90%,78%,0.5)" opacity="0.71"/><circle cx="887" cy="59" r="1.1" fill="hsla(45.780771657824516,90%,78%,0.5)" opacity="0.57"/><circle cx="1081" cy="229" r="1.1" fill="hsla(45.780771657824516,90%,78%,0.5)" opacity="0.30"/><circle cx="420" cy="90" r="0.8" fill="hsla(45.780771657824516,90%,78%,0.5)" opacity="0.70"/><circle cx="214" cy="177" r="2.2" fill="hsla(45.780771657824516,90%,78%,0.5)" opacity="0.57"/><circle cx="786" cy="137" r="1.2" fill="hsla(45.780771657824516,90%,78%,0.5)" opacity="0.63"/><circle cx="769" cy="152" r="1.8" fill="hsla(45.780771657824516,90%,78%,0.5)" opacity="0.83"/><circle cx="953" cy="217" r="1.6" fill="hsla(45.780771657824516,90%,78%,0.5)" opacity="0.77"/><circle cx="764" cy="224" r="1.4" fill="hsla(45.780771657824516,90%,78%,0.5)" opacity="0.82"/><circle cx="82" cy="64" r="1.2" fill="hsla(45.780771657824516,90%,78%,0.5)" opacity="0.40"/><circle cx="1159" cy="140" r="2.1" fill="hsla(45.780771657824516,90%,78%,0.5)" opacity="0.67"/><circle cx="573" cy="240" r="1.4" fill="hsla(45.780771657824516,90%,78%,0.5)" opacity="0.81"/><circle cx="648" cy="163" r="2.0" fill="hsla(45.780771657824516,90%,78%,0.5)" opacity="0.53"/><circle cx="866" cy="212" r="1.4" fill="hsla(45.780771657824516,90%,78%,0.5)" opacity="0.67"/><circle cx="391" cy="274" r="1.8" fill="hsla(45.780771657824516,90%,78%,0.5)" opacity="0.83"/><circle cx="766.6655624751002" cy="260" r="192" fill="url(#glow-residence-aspen)"/><circle cx="766.6655624751002" cy="260" r="60" fill="hsla(45.780771657824516,90%,78%,1)"/><path d="M0 750 L0 520 L24.1 409.8 L124.1 513.8 L173.6 326.2 L273.6 465.4 L386.2 365.4 L486.2 498.9 L560.0 406.3 L660.0 452.1 L787.4 319.4 L887.4 456.5 L1005.7 378.9 L1105.7 495.9 L1233.2 322.9 L1200 520 L1200 750 Z" fill="hsla(209.78077165782452,25%,45%,1)"/><path d="M147.6 360.2 L173.6 326.2 L199.6 360.2 L185.6 356.2 L173.6 368.2 L161.6 356.2 Z" fill="hsla(45.780771657824516,90%,78%,0.4)"/><path d="M761.4 353.4 L787.4 319.4 L813.4 353.4 L799.4 349.4 L787.4 361.4 L775.4 349.4 Z" fill="hsla(45.780771657824516,90%,78%,0.4)"/><path d="M1207.2 356.9 L1233.2 322.9 L1259.2 356.9 L1245.2 352.9 L1233.2 364.9 L1221.2 352.9 Z" fill="hsla(45.780771657824516,90%,78%,0.4)"/><rect x="0" y="560" width="1200" height="190" fill="hsla(211.78077165782452,30%,28%,1)"/><path d="M300 560 L600 300 L900 560 Z" fill="hsla(215.78077165782452,35%,14%,1)"/><rect x="360" y="440" width="480" height="120" fill="hsla(215.78077165782452,35%,14%,1)"/><rect x="430" y="470" width="40" height="40" rx="2" fill="hsla(45.780771657824516,90%,78%,1)" opacity="0.9"/><rect x="580" y="470" width="40" height="40" rx="2" fill="hsla(45.780771657824516,90%,78%,1)" opacity="0.9"/><rect x="730" y="470" width="40" height="40" rx="2" fill="hsla(45.780771657824516,90%,78%,1)" opacity="0.9"/><path d="M300 560 L600 300 L900 560" stroke="#e9eef5" stroke-width="8" fill="none"/><path d="M177.5831346027553 600 L157.5831346027553 600 Q159.5831346027553 479 177.5831346027553 380 Q195.5831346027553 479 197.5831346027553 600 Z" fill="hsla(215.78077165782452,35%,14%,1)"/><path d="M1037.1430963277817 600 L1019.1430963277817 600 Q1020.9430963277816 490 1037.1430963277817 400 Q1053.3430963277817 490 1055.1430963277817 600 Z" fill="hsla(215.78077165782452,35%,14%,1)"/><path d="M228.73113342560828 600 L208.73113342560828 600 Q210.73113342560828 479 228.73113342560828 380 Q246.73113342560828 479 248.73113342560828 600 Z" fill="hsla(215.78077165782452,35%,14%,1)"/><path d="M1113.169732093811 600 L1095.169732093811 600 Q1096.969732093811 490 1113.169732093811 400 Q1129.369732093811 490 1131.169732093811 600 Z" fill="hsla(215.78077165782452,35%,14%,1)"/><path d="M231.9514531083405 600 L211.9514531083405 600 Q213.9514531083405 479 231.9514531083405 380 Q249.9514531083405 479 251.9514531083405 600 Z" fill="hsla(215.78077165782452,35%,14%,1)"/><path d="M1039.225937128067 600 L1021.225937128067 600 Q1023.025937128067 490 1039.225937128067 400 Q1055.425937128067 490 1057.225937128067 600 Z" fill="hsla(215.78077165782452,35%,14%,1)"/><path d="M219.00685063563287 600 L199.00685063563287 600 Q201.00685063563287 479 219.00685063563287 380 Q237.00685063563287 479 239.00685063563287 600 Z" fill="hsla(215.78077165782452,35%,14%,1)"/><path d="M1018.2861749455333 600 L1000.2861749455333 600 Q1002.0861749455332 490 1018.2861749455333 400 Q1034.4861749455333 490 1036.2861749455333 600 Z" fill="hsla(215.78077165782452,35%,14%,1)"/><text x="60" y="690" font-family="Fraunces, Georgia, serif" font-size="34" fill="rgba(255,255,255,0.85)">Red Mountain Chalet</text><text x="60" y="646" font-family="Inter, system-ui, sans-serif" font-size="16" letter-spacing="4" fill="rgba(255,255,255,0.45)">ASPEN · CHALET</text><rect x="0" y="0" width="1200" height="750" fill="url(#vign-residence-aspen)"/><rect x="18" y="18" width="1164" height="714" fill="none" stroke="rgba(255,255,255,0.10)" stroke-width="1.2"/></g></svg>